<?xml version="1.0" encoding="UTF-8" standalone="no"?><!DOCTYPE svg PUBLIC "-//W3C//DTD SVG 1.1//EN" "http://www.w3.org/Graphics/SVG/1.1/DTD/svg11.dtd"><svg width="100%" height="100%" viewBox="0 0 645 645" version="1.1" xmlns="http://www.w3.org/2000/svg" xmlns:xlink="http://www.w3.org/1999/xlink" xml:space="preserve" xmlns:serif="http://www.serif.com/" style="fill-rule:evenodd;clip-rule:evenodd;stroke-linejoin:round;stroke-miterlimit:2;"><path d="M644.479,322.246c0,177.966 -144.271,322.237 -322.237,322.237c-177.971,0 -322.242,-144.271 -322.242,-322.237c0,-177.975 144.271,-322.246 322.242,-322.246c177.966,0 322.237,144.271 322.237,322.246Z" style="fill:#185788;fill-rule:nonzero;"/><path d="M528.042,395.138c-0,58.316 -47.263,105.587 -105.588,105.587c-58.321,-0 -105.591,-47.271 -105.591,-105.587c-0,-58.313 47.27,-105.592 105.591,-105.592c58.325,-0 105.588,47.279 105.588,105.592Z" style="fill:#8a603c;fill-rule:nonzero;"/><path d="M327.621,395.542c-0,58.316 -47.267,105.587 -105.596,105.587c-58.308,0 -105.588,-47.271 -105.588,-105.587c0,-58.317 47.28,-105.596 105.588,-105.596c58.329,-0 105.596,47.279 105.596,105.596Z" style="fill:#8a603c;fill-rule:nonzero;"/><path d="M300.292,481.583c-0.025,0.034 -0.059,0.092 -0.079,0.113c0.02,-0.029 0.054,-0.079 0.062,-0.125c-0,-0 0.017,-0 0.017,0.012Z" style="fill:#08171b;fill-rule:nonzero;"/><path d="M300.142,481.583c0.021,0.034 0.054,0.092 0.071,0.113c-0.017,-0.029 -0.05,-0.079 -0.063,-0.125c-0,-0 -0.008,-0 -0.008,0.012Z" style="fill:#08171b;fill-rule:nonzero;"/><path d="M324.037,475.354c-0.058,0 -0.112,-0.012 -0.158,-0.012c0.046,-0 0.1,-0.013 0.158,-0.013l0,0.025Z" style="fill:#a94824;fill-rule:nonzero;"/><path d="M323.717,475.354c0.058,0 0.12,-0.012 0.162,-0.012c-0.042,-0 -0.104,-0.013 -0.162,-0.013l-0,0.025Z" style="fill:#a94824;fill-rule:nonzero;"/><path d="M374.408,197.471c0,38.462 31.18,69.65 69.654,69.65c38.463,-0 69.651,-31.188 69.651,-69.65c-0,-38.471 -31.188,-69.654 -69.651,-69.654c-38.474,-0 -69.654,31.183 -69.654,69.654Z" style="fill:#b05b2b;fill-rule:nonzero;"/><path d="M403.908,197.471c0,22.175 17.971,40.154 40.154,40.154c22.176,-0 40.155,-17.979 40.155,-40.154c-0,-22.179 -17.979,-40.154 -40.155,-40.154c-22.183,-0 -40.154,17.975 -40.154,40.154Z" style="fill:#4a1b11;fill-rule:nonzero;"/><path d="M374.408,197.471c0,38.462 31.18,69.65 69.654,69.65c38.463,-0 69.651,-31.188 69.651,-69.65c-0,-38.471 -31.188,-69.654 -69.651,-69.654c-38.474,-0 -69.654,31.183 -69.654,69.654Z" style="fill:#8a603c;fill-rule:nonzero;"/><path d="M403.908,197.471c0,22.175 17.971,40.154 40.154,40.154c22.176,-0 40.155,-17.979 40.155,-40.154c-0,-22.179 -17.979,-40.154 -40.155,-40.154c-22.183,-0 -40.154,17.975 -40.154,40.154Z" style="fill:#c3996c;fill-rule:nonzero;"/><path d="M324.358,159.104l0,246.804c0.03,0.021 0.063,0.025 0.088,0.05l-0.088,35.221l0,8.404l-0.012,0l-0.15,57.034" style="fill:#f59e2b;fill-rule:nonzero;"/><path d="M324.333,513.054l0.242,-107.096" style="fill:none;fill-rule:nonzero;"/><path d="M324.375,184.871l-0.162,-0l0.162,-0Z" style="fill:#4a1b11;fill-rule:nonzero;"/><path d="M324.213,184.871l-0.167,-0l0.167,-0Z" style="fill:#4a1b11;fill-rule:nonzero;"/><path d="M273.683,197.471c0,38.462 -31.179,69.65 -69.654,69.65c-38.462,-0 -69.65,-31.188 -69.65,-69.65c0,-38.471 31.188,-69.654 69.65,-69.654c38.475,-0 69.654,31.183 69.654,69.654Z" style="fill:#b05b2b;fill-rule:nonzero;"/><path d="M244.183,197.471c0,22.175 -17.97,40.154 -40.154,40.154c-22.175,-0 -40.154,-17.979 -40.154,-40.154c0,-22.179 17.979,-40.154 40.154,-40.154c22.184,-0 40.154,17.975 40.154,40.154Z" style="fill:#4a1b11;fill-rule:nonzero;"/><path d="M273.683,197.471c0,38.462 -31.179,69.65 -69.654,69.65c-38.462,-0 -69.65,-31.188 -69.65,-69.65c0,-38.471 31.188,-69.654 69.65,-69.654c38.475,-0 69.654,31.183 69.654,69.654Z" style="fill:#8a603c;fill-rule:nonzero;"/><path d="M244.183,197.471c0,22.175 -17.97,40.154 -40.154,40.154c-22.175,-0 -40.154,-17.979 -40.154,-40.154c0,-22.179 17.979,-40.154 40.154,-40.154c22.184,-0 40.154,17.975 40.154,40.154Z" style="fill:#c3996c;fill-rule:nonzero;"/><path d="M323.733,159.104l0,246.804c-0.029,0.021 -0.062,0.025 -0.087,0.05l0.087,35.221l0,8.404l0.017,0l0.146,57.034" style="fill:#f59e2b;fill-rule:nonzero;"/><path d="M496.179,336.333c0,-92.354 -41.471,-177.229 -172.037,-177.229l-0.188,1.963l0,-1.963c-130.575,0 -172.042,84.875 -172.042,177.229c-9.72,39.609 -26.712,38.488 -17.149,89.092c9.562,50.6 63.754,69.325 103.295,70.4l0,-33.537c0,-25.08 40.592,-7.734 43.338,-13.755c28.687,11.346 13.054,-4.562 18.746,7.421c7.091,-3.946 15.146,-6.371 23.812,-6.371l0,-0.875l0.188,0.875c8.662,0 16.716,2.425 23.808,6.371c5.692,-11.983 -23.525,15.083 5.167,3.738c2.745,6.02 56.921,-22.484 56.921,2.596l-0,33.537c33.929,-0 96.087,0.521 99.27,-64.029c2.771,-56.121 -3.408,-55.854 -13.129,-95.463Z" style="fill:#8a603c;fill-rule:nonzero;"/><path d="M323.758,513.054l-0.241,-107.096" style="fill:none;fill-rule:nonzero;"/><path d="M323.717,184.871l0.162,-0l-0.162,-0Z" style="fill:#4a1b11;fill-rule:nonzero;"/><path d="M323.879,184.871l0.167,-0l-0.167,-0Z" style="fill:#4a1b11;fill-rule:nonzero;"/><path d="M364.754,307.846c0,13.396 10.863,24.241 24.254,24.241c13.392,0 24.25,-10.845 24.25,-24.241c0,-13.396 -10.858,-24.254 -24.25,-24.254c-13.391,-0 -24.254,10.858 -24.254,24.254Z" style="fill:#3b3e43;fill-rule:nonzero;"/><path d="M383.542,288.796c-0,7.029 5.708,12.725 12.741,12.725c7.034,-0 12.734,-5.696 12.734,-12.725c-0,-7.042 -5.7,-12.738 -12.734,-12.738c-7.033,0 -12.741,5.696 -12.741,12.738Z" style="fill:#fff;fill-rule:nonzero;"/><path d="M293.029,307.846c0,13.396 -10.85,24.241 -24.241,24.241c-13.392,0 -24.25,-10.845 -24.25,-24.241c-0,-13.396 10.858,-24.254 24.25,-24.254c13.391,-0 24.241,10.858 24.241,24.254Z" style="fill:#3b3e43;fill-rule:nonzero;"/><path d="M274.242,288.796c-0,7.029 -5.7,12.725 -12.734,12.725c-7.033,-0 -12.733,-5.696 -12.733,-12.725c0,-7.042 5.7,-12.738 12.733,-12.738c7.034,0 12.734,5.696 12.734,12.738Z" style="fill:#fff;fill-rule:nonzero;"/><path d="M380.525,402.117c-15.05,-4.754 -26.867,-10.734 -56.479,3.841c-29.617,-14.575 -41.429,-8.595 -56.475,-3.841c-7.038,2.896 -29.513,14.7 -29.513,60.171c0,22.087 -0.5,35.487 -0.5,38.445c26.563,9.484 36.267,15.934 88.859,15.934c52.6,-0 55.475,-6.855 82.033,-16.334c-0,-2.954 1.588,-15.958 1.588,-38.045c-0,-45.471 -22.48,-57.275 -29.513,-60.171Z" style="fill:#f4dbbd;fill-rule:nonzero;"/><path d="M363.588,398.137c-0,14.338 -16.584,32.196 -37.046,32.196c-20.463,0 -37.05,-17.858 -37.05,-32.196c-0,-14.341 16.587,-25.97 37.05,-25.97c20.462,-0 37.046,11.629 37.046,25.97Z" style="fill:#3b3e43;fill-rule:nonzero;"/><path d="M291.667,469.854c-9.096,0 -19.175,-4.483 -30.084,-13.412c-1.446,-1.192 -1.662,-3.334 -0.475,-4.792c1.192,-1.454 3.338,-1.663 4.792,-0.475c12.75,10.437 23.742,14.008 32.65,10.625c17.754,-6.754 23.008,-38.525 23.054,-38.85c0.304,-1.846 2.042,-3.117 3.896,-2.817c1.858,0.3 3.125,2.034 2.829,3.9c-0.229,1.455 -5.966,35.984 -27.362,44.117c-2.975,1.137 -6.075,1.704 -9.3,1.704Z" style="fill:#3b3e43;fill-rule:nonzero;"/><path d="M354.817,472.829c-2.813,0 -5.504,-0.512 -8.075,-1.546c-20.342,-8.137 -24.154,-45.862 -24.309,-47.471c-0.179,-1.87 1.192,-3.533 3.059,-3.708c1.866,-0.187 3.537,1.192 3.704,3.067c0.946,9.771 6.379,36.325 20.083,41.804c7.504,3.004 17.088,-0.475 28.454,-10.337c1.421,-1.234 3.567,-1.08 4.792,0.333c1.233,1.421 1.083,3.579 -0.337,4.804c-10.021,8.692 -19.188,13.054 -27.371,13.054Z" style="fill:#3b3e43;fill-rule:nonzero;"/><path d="M350.679,390.362c-0.866,3.442 -5.929,5.105 -11.3,3.738c-5.371,-1.379 -9.016,-5.292 -8.154,-8.733c0.871,-3.434 5.925,-5.1 11.292,-3.73c5.375,1.384 9.021,5.284 8.162,8.725Z" style="fill:#fff;fill-rule:nonzero;"/></svg>