<?xml version="1.0" encoding="UTF-8" standalone="no"?><!DOCTYPE svg PUBLIC "-//W3C//DTD SVG 1.1//EN" "http://www.w3.org/Graphics/SVG/1.1/DTD/svg11.dtd"><svg width="100%" height="100%" viewBox="0 0 645 645" version="1.1" xmlns="http://www.w3.org/2000/svg" xmlns:xlink="http://www.w3.org/1999/xlink" xml:space="preserve" xmlns:serif="http://www.serif.com/" style="fill-rule:evenodd;clip-rule:evenodd;stroke-linejoin:round;stroke-miterlimit:2;"><path d="M644.479,322.246c0,177.962 -144.271,322.237 -322.237,322.237c-177.971,0 -322.242,-144.275 -322.242,-322.237c0,-177.975 144.271,-322.246 322.242,-322.246c177.966,0 322.237,144.271 322.237,322.246Z" style="fill:#61a5a2;fill-rule:nonzero;"/><path d="M364.754,193.35c-14.696,66.321 -8.829,124.021 13.092,128.875c21.933,4.858 51.616,-44.967 66.317,-111.279c14.695,-66.321 -13.096,-128.879 -13.096,-128.879c-0,-0 -51.621,44.962 -66.313,111.283Z" style="fill:#8a603c;fill-rule:nonzero;"/><path d="M379.908,195.783c-10.633,47.967 -10.554,89.7 5.3,93.221c15.863,3.513 33.171,-32.529 43.796,-80.496c10.634,-47.962 -5.304,-93.212 -5.304,-93.212c0,-0 -33.167,32.516 -43.792,80.487Z" style="fill:#f4dbbd;fill-rule:nonzero;"/><path d="M279.725,193.35c14.696,66.321 8.838,124.021 -13.092,128.875c-21.925,4.858 -51.616,-44.967 -66.312,-111.279c-14.692,-66.321 13.096,-128.879 13.096,-128.879c-0,-0 51.616,44.962 66.308,111.283Z" style="fill:#8a603c;fill-rule:nonzero;"/><path d="M264.575,195.783c10.629,47.967 10.554,89.7 -5.308,93.221c-15.863,3.513 -33.163,-32.529 -43.792,-80.496c-10.629,-47.962 5.3,-93.212 5.3,-93.212c0,-0 33.171,32.516 43.8,80.487Z" style="fill:#f4dbbd;fill-rule:nonzero;"/><path d="M450.963,385.871c5.675,-92.288 -53.984,-162.096 -128.725,-163.213c-74.734,1.117 -134.396,70.925 -128.713,163.213c2.279,37.087 -8.987,74.141 -8.987,104.371c-0,30.229 29.837,60.775 134.595,60.775c1.055,-0 2.08,-0.013 3.105,-0.021c1.033,0.008 2.058,0.021 3.108,0.021c104.762,-0 134.6,-30.546 134.6,-60.775c-0,-30.23 -11.275,-67.284 -8.983,-104.371Z" style="fill:#966b4e;fill-rule:nonzero;"/><path d="M324.2,418.704c-0.65,0 -1.308,0.008 -1.962,0.013c-0.65,-0.005 -1.305,-0.013 -1.959,-0.013c-74.966,0 -135.737,32.171 -135.737,71.859c-0,39.687 60.771,71.858 135.737,71.858c0.654,-0 1.309,-0.009 1.959,-0.013c0.654,0.004 1.312,0.013 1.962,0.013c74.962,-0 135.737,-32.171 135.737,-71.858c0,-39.688 -60.775,-71.859 -135.737,-71.859Z" style="fill:#313439;fill-rule:nonzero;"/><path d="M355.65,353.171c0,10.083 8.171,18.254 18.25,18.254c10.075,-0 18.25,-8.171 18.25,-18.254c0,-10.079 -8.175,-18.254 -18.25,-18.254c-10.079,-0 -18.25,8.175 -18.25,18.254Z" style="fill:#3b3e43;fill-rule:nonzero;"/><path d="M372.633,338.471c0,6.437 5.217,11.662 11.659,11.662c6.441,0 11.658,-5.225 11.658,-11.662c-0,-6.442 -5.217,-11.663 -11.658,-11.663c-6.442,0 -11.659,5.221 -11.659,11.663Z" style="fill:#fff;fill-rule:nonzero;"/><path d="M353.363,473.954c-0,10.083 8.17,18.25 18.254,18.25c10.075,0 18.254,-8.167 18.254,-18.25c-0,-10.075 -8.179,-18.25 -18.254,-18.25c-10.084,0 -18.254,8.175 -18.254,18.25Z" style="fill:#f4dbbd;fill-rule:nonzero;"/><path d="M288.833,353.171c0,10.083 -8.171,18.254 -18.25,18.254c-10.083,-0 -18.254,-8.171 -18.254,-18.254c0,-10.079 8.171,-18.254 18.254,-18.254c10.079,-0 18.25,8.175 18.25,18.254Z" style="fill:#3b3e43;fill-rule:nonzero;"/><path d="M271.85,338.471c0,6.437 -5.225,11.662 -11.658,11.662c-6.442,0 -11.671,-5.225 -11.671,-11.662c-0,-6.442 5.229,-11.663 11.671,-11.663c6.433,0 11.658,5.221 11.658,11.663Z" style="fill:#fff;fill-rule:nonzero;"/><path d="M291.113,473.954c-0,10.083 -8.175,18.25 -18.25,18.25c-10.08,0 -18.255,-8.167 -18.255,-18.25c0,-10.075 8.175,-18.25 18.255,-18.25c10.075,0 18.25,8.175 18.25,18.25Z" style="fill:#f4dbbd;fill-rule:nonzero;"/></svg>