<?xml version="1.0" encoding="UTF-8" standalone="no"?><!DOCTYPE svg PUBLIC "-//W3C//DTD SVG 1.1//EN" "http://www.w3.org/Graphics/SVG/1.1/DTD/svg11.dtd"><svg width="100%" height="100%" viewBox="0 0 645 645" version="1.1" xmlns="http://www.w3.org/2000/svg" xmlns:xlink="http://www.w3.org/1999/xlink" xml:space="preserve" xmlns:serif="http://www.serif.com/" style="fill-rule:evenodd;clip-rule:evenodd;stroke-linejoin:round;stroke-miterlimit:2;"><path d="M644.483,322.246c0,177.966 -144.27,322.237 -322.237,322.237c-177.975,0 -322.246,-144.271 -322.246,-322.237c-0,-177.975 144.271,-322.246 322.246,-322.246c177.967,0 322.237,144.271 322.237,322.246Z" style="fill:#d8d424;fill-rule:nonzero;"/><path d="M262.696,200.558c-0,46.038 -37.325,83.363 -83.363,83.363c-46.045,-0 -83.362,-37.325 -83.362,-83.363c-0,-46.033 37.317,-83.362 83.362,-83.362c46.038,-0 83.363,37.329 83.363,83.362Z" style="fill:#313439;fill-rule:nonzero;"/><path d="M548.508,200.558c0,46.038 -37.329,83.363 -83.366,83.363c-46.038,-0 -83.359,-37.325 -83.359,-83.363c0,-46.033 37.321,-83.362 83.359,-83.362c46.037,-0 83.366,37.329 83.366,83.362Z" style="fill:#313439;fill-rule:nonzero;"/><path d="M524.504,339.671c22.75,99.646 0,187.616 -201.308,187.616c-201.304,0 -209.658,-78.054 -189.208,-187.616c19.541,-104.696 78.029,-184.304 189.208,-184.304c111.183,-0 177.583,80.4 201.308,184.304Z" style="fill:#f8f2e7;fill-rule:nonzero;"/><path d="M373.721,363.604c10.717,35.967 54.863,41.871 79.733,26.092c24.867,-15.784 29.484,-53.059 10.321,-83.25c-19.158,-30.196 -54.85,-41.884 -79.721,-26.1c-24.866,15.783 -20.533,48.975 -10.333,83.258Z" style="fill:#3b3e43;fill-rule:nonzero;"/><path d="M365.442,415.296c-0,13.704 -15.992,30.766 -35.725,30.766c-19.734,0 -35.725,-17.062 -35.725,-30.766c-0,-13.696 15.991,-24.813 35.725,-24.813c19.733,0 35.725,11.117 35.725,24.813Z" style="fill:#3b3e43;fill-rule:nonzero;"/><path d="M292.467,487.983c-9.8,0 -20.646,-4.829 -32.4,-14.45c-1.567,-1.275 -1.8,-3.583 -0.517,-5.15c1.288,-1.57 3.588,-1.8 5.154,-0.516c13.742,11.241 25.584,15.091 35.18,11.441c19.124,-7.275 24.787,-41.5 24.837,-41.841c0.325,-1.996 2.192,-3.367 4.2,-3.042c2,0.321 3.358,2.196 3.042,4.192c-0.254,1.579 -6.43,38.775 -29.475,47.541c-3.205,1.221 -6.546,1.825 -10.021,1.825Z" style="fill:#3b3e43;fill-rule:nonzero;"/><path d="M360.496,491.2c-3.025,0 -5.929,-0.558 -8.7,-1.671c-21.917,-8.767 -26.017,-49.408 -26.183,-51.137c-0.192,-2.017 1.283,-3.805 3.3,-3.992c2.008,-0.208 3.808,1.283 3.991,3.296c1.013,10.525 6.867,39.133 21.621,45.033c8.092,3.238 18.408,-0.508 30.658,-11.133c1.534,-1.325 3.842,-1.159 5.163,0.366c1.329,1.53 1.162,3.842 -0.358,5.176c-10.796,9.354 -20.675,14.062 -29.492,14.062Z" style="fill:#3b3e43;fill-rule:nonzero;"/><path d="M391.117,339.3c-0,16.342 13.241,29.583 29.583,29.583c16.342,0 29.588,-13.241 29.588,-29.583c-0,-16.338 -13.246,-29.588 -29.588,-29.588c-16.342,0 -29.583,13.25 -29.583,29.588Z" style="fill:#fff;fill-rule:nonzero;"/><path d="M405.725,339.55c0,8.271 6.708,14.975 14.975,14.975c8.267,-0 14.975,-6.704 14.975,-14.975c0,-8.271 -6.708,-14.975 -14.975,-14.975c-8.267,-0 -14.975,6.704 -14.975,14.975Z" style="fill:#3b3e43;fill-rule:nonzero;"/><path d="M417.329,327.783c0,4.346 3.517,7.867 7.863,7.867c4.341,-0 7.862,-3.521 7.862,-7.867c0,-4.341 -3.521,-7.862 -7.862,-7.862c-4.346,-0 -7.863,3.521 -7.863,7.862Z" style="fill:#fff;fill-rule:nonzero;"/><path d="M292.85,356.883c-10.717,35.975 -54.858,41.875 -79.725,26.092c-24.862,-15.779 -29.492,-53.05 -10.329,-83.242c19.171,-30.204 54.866,-41.879 79.729,-26.1c24.867,15.788 20.533,48.975 10.325,83.25Z" style="fill:#3b3e43;fill-rule:nonzero;"/><path d="M276.788,331.812c-0,16.342 -13.246,29.584 -29.584,29.584c-16.337,-0 -29.587,-13.242 -29.587,-29.584c-0,-16.337 13.25,-29.591 29.587,-29.591c16.338,-0 29.584,13.254 29.584,29.591Z" style="fill:#fff;fill-rule:nonzero;"/><path d="M262.179,332.063c0,8.274 -6.704,14.975 -14.975,14.975c-8.266,-0 -14.975,-6.701 -14.975,-14.975c0,-8.271 6.709,-14.98 14.975,-14.98c8.271,0 14.975,6.709 14.975,14.98Z" style="fill:#3b3e43;fill-rule:nonzero;"/><path d="M250.575,320.296c0,4.346 -3.517,7.867 -7.862,7.867c-4.342,-0 -7.863,-3.521 -7.863,-7.867c0,-4.346 3.521,-7.867 7.863,-7.867c4.345,0 7.862,3.521 7.862,7.867Z" style="fill:#fff;fill-rule:nonzero;"/><path d="M352.992,407.867c-0.842,3.291 -5.717,4.883 -10.892,3.566c-5.183,-1.316 -8.704,-5.046 -7.867,-8.333c0.838,-3.292 5.709,-4.888 10.892,-3.567c5.171,1.317 8.696,5.046 7.867,8.334Z" style="fill:#fff;fill-rule:nonzero;"/></svg>