<?xml version="1.0" encoding="UTF-8" standalone="no"?><!DOCTYPE svg PUBLIC "-//W3C//DTD SVG 1.1//EN" "http://www.w3.org/Graphics/SVG/1.1/DTD/svg11.dtd"><svg width="100%" height="100%" viewBox="0 0 645 645" version="1.1" xmlns="http://www.w3.org/2000/svg" xmlns:xlink="http://www.w3.org/1999/xlink" xml:space="preserve" xmlns:serif="http://www.serif.com/" style="fill-rule:evenodd;clip-rule:evenodd;stroke-linejoin:round;stroke-miterlimit:2;"><path d="M644.483,322.246c0,177.962 -144.275,322.237 -322.237,322.237c-177.975,0 -322.246,-144.275 -322.246,-322.237c-0,-177.975 144.271,-322.246 322.246,-322.246c177.962,0 322.237,144.271 322.237,322.246Z" style="fill:#d8d424;fill-rule:nonzero;"/><path d="M273.858,174c12.729,57.433 7.655,107.417 -11.337,111.621c-18.996,4.208 -44.704,-38.942 -57.438,-96.388c-12.729,-57.441 -7.654,-107.412 11.342,-111.625c18.996,-4.2 44.712,38.946 57.433,96.392Z" style="fill:#e0dcd3;fill-rule:nonzero;"/><path d="M266.654,175.592c10.059,45.4 6.042,84.891 -8.966,88.225c-15.009,3.325 -35.338,-30.784 -45.396,-76.175c-10.059,-45.4 -6.042,-84.896 8.966,-88.217c15.013,-3.329 35.33,30.771 45.396,76.167Z" style="fill:#313439;fill-rule:nonzero;"/><path d="M365.988,174c-12.725,57.433 -7.646,107.417 11.345,111.621c18.992,4.208 44.705,-38.942 57.434,-96.388c12.733,-57.441 7.654,-107.412 -11.338,-111.625c-19,-4.2 -44.708,38.946 -57.441,96.392Z" style="fill:#e0dcd3;fill-rule:nonzero;"/><path d="M373.208,175.592c-10.062,45.4 -6.054,84.891 8.954,88.225c15.013,3.325 35.338,-30.784 45.392,-76.175c10.063,-45.4 6.05,-84.896 -8.958,-88.217c-15.009,-3.329 -35.333,30.771 -45.388,76.167Z" style="fill:#313439;fill-rule:nonzero;"/><path d="M465.267,378.225c-0,113.625 39.579,176.746 -143.021,176.746c-182.596,-0 -143.025,-74.088 -143.025,-176.746c-0,-97.617 62.237,-176.75 143.025,-176.75c80.783,0 143.021,79.133 143.021,176.75Z" style="fill:#f8f2e7;fill-rule:nonzero;"/><path d="M468.521,490.367c-0,42.412 -64.942,76.795 -145.054,76.795c-80.113,0 -145.05,-34.383 -145.05,-76.795c-0,-42.413 64.937,-76.796 145.05,-76.796c80.112,-0 145.054,34.383 145.054,76.796Z" style="fill:#313439;fill-rule:nonzero;"/><path d="M289.858,343.542c0,10.77 -8.733,19.504 -19.508,19.504c-10.771,-0 -19.5,-8.734 -19.5,-19.504c0,-10.775 8.729,-19.505 19.5,-19.505c10.775,0 19.508,8.73 19.508,19.505Z" style="fill:#313439;fill-rule:nonzero;"/><path d="M271.708,327.829c0,6.879 -5.575,12.454 -12.462,12.454c-6.879,0 -12.454,-5.575 -12.454,-12.454c-0,-6.883 5.575,-12.458 12.454,-12.458c6.887,-0 12.462,5.575 12.462,12.458Z" style="fill:#fff;fill-rule:nonzero;"/><path d="M354.338,343.542c-0,10.77 8.72,19.504 19.499,19.504c10.767,-0 19.505,-8.734 19.505,-19.504c-0,-10.775 -8.738,-19.505 -19.505,-19.505c-10.779,0 -19.499,8.73 -19.499,19.505Z" style="fill:#313439;fill-rule:nonzero;"/><path d="M372.488,327.825c-0,6.883 5.575,12.458 12.449,12.458c6.884,0 12.467,-5.575 12.467,-12.458c0,-6.879 -5.583,-12.454 -12.467,-12.454c-6.874,-0 -12.449,5.575 -12.449,12.454Z" style="fill:#fff;fill-rule:nonzero;"/><g><clipPath id="_clip1"><path d="M465.267,378.225c-0,97.617 25.191,176.746 -143.021,176.746c-168.213,-0 -143.025,-79.129 -143.025,-176.746c-0,-97.617 62.237,-176.75 143.025,-176.75c80.783,0 143.021,79.133 143.021,176.75Z"/></clipPath><g clip-path="url(#_clip1)"><path d="M508.196,361.421c-0,-0 -0.379,0.379 -1.075,0.958c-0.688,0.533 -1.717,1.483 -2.988,2.367c-2.55,1.854 -6.137,4.066 -10.325,5.9c-4.191,1.837 -8.991,3.329 -14.016,4.062c-1.259,0.192 -2.53,0.317 -3.809,0.434c-1.254,0.095 -2.412,0.258 -3.625,0.308c-2.395,0.129 -4.8,0.083 -7.183,-0.138c-2.383,-0.245 -4.754,-0.666 -7.083,-1.241c-2.267,-0.358 -4.505,-0.946 -6.692,-1.683c-2.192,-0.73 -4.338,-1.638 -6.413,-2.68c-2.187,-0.925 -4.341,-2.012 -6.304,-3.096c-3.933,-2.233 -7.275,-4.795 -9.637,-6.891c-1.179,-1.009 -2.121,-2.05 -2.758,-2.65c-0.642,-0.65 -0.988,-1.067 -0.988,-1.067c0,0 0.308,-0.454 0.888,-1.15c0.579,-0.654 1.424,-1.775 2.52,-2.879c2.192,-2.3 5.355,-5.142 9.217,-7.712c1.942,-1.238 4.013,-2.571 6.296,-3.617c2.396,-0.988 4.966,-1.842 7.658,-2.521c2.692,-0.675 5.5,-1.208 8.359,-1.504c2.775,-0.104 5.579,0.008 8.379,0.271c2.795,0.287 5.57,0.758 8.275,1.391c1.337,0.321 2.716,0.684 3.954,1.1c1.204,0.459 2.392,0.93 3.554,1.459c4.642,2.079 8.862,4.829 12.408,7.754c3.542,2.908 6.404,6.025 8.363,8.508c0.987,1.2 1.725,2.392 2.246,3.092c0.516,0.75 0.779,1.225 0.779,1.225Z" style="fill:#313439;fill-rule:nonzero;"/><path d="M470.904,237.842c0,-0 -0.187,0.521 -0.591,1.379c-0.417,0.804 -0.975,2.142 -1.792,3.537c-1.604,2.888 -4.046,6.588 -7.246,10.246c-1.629,1.792 -3.4,3.688 -5.117,5.496c-1.771,1.808 -3.675,3.525 -5.691,5.117c-2.029,1.633 -4.125,2.954 -6.421,4.433c-2.271,1.413 -4.646,2.692 -7.096,3.808c-4.95,2.109 -10.004,4.005 -15.233,4.9c-2.609,0.471 -5.146,0.892 -7.696,1.071c-2.521,0.234 -5.088,0.158 -7.421,0.167c-4.737,-0.104 -9.096,-0.758 -12.296,-1.392c-1.587,-0.287 -2.975,-0.733 -3.858,-0.917c-0.913,-0.233 -1.442,-0.412 -1.442,-0.412c0,-0 0.063,-0.55 0.275,-1.479c0.242,-0.888 0.521,-2.309 1.058,-3.854c0.513,-1.58 1.213,-3.438 2.121,-5.375c0.909,-1.946 2.025,-4.013 3.342,-6.15c1.333,-2.109 2.867,-4.225 4.621,-6.284c1.758,-2.041 3.679,-4.125 5.833,-5.958c2.15,-1.842 4.454,-3.613 6.913,-5.196c2.429,-1.621 5.046,-3 7.737,-4.2c2.696,-1.196 5.471,-2.233 8.258,-3.092c2.73,-0.891 5.788,-1.404 8.638,-1.812c2.887,-0.388 5.725,-0.579 8.45,-0.583c2.75,-0.075 5.3,0.295 7.675,0.712c4.783,0.858 8.996,2.229 12.05,3.479c1.508,0.584 2.779,1.284 3.613,1.654c0.841,0.413 1.316,0.705 1.316,0.705Z" style="fill:#313439;fill-rule:nonzero;"/><path d="M513.067,452.429c-0,0 -0.613,0.092 -1.675,0.146c-1.038,0.004 -2.675,0.188 -4.521,0.196c-1.896,0.05 -4.029,-0.004 -6.471,-0.092c-2.458,-0.087 -5.121,-0.304 -7.917,-0.65c-2.737,-0.425 -5.77,-0.754 -8.779,-1.367c-3.029,-0.579 -6.067,-1.404 -9.167,-2.283c-3.137,-0.821 -6.266,-1.829 -9.337,-3.037c-1.537,-0.605 -3.075,-1.23 -4.575,-1.934c-1.538,-0.629 -3.071,-1.262 -4.587,-1.937c-3.021,-1.379 -5.967,-2.913 -8.809,-4.596c-2.812,-1.767 -5.621,-3.325 -8.279,-5.1c-2.654,-1.758 -5.175,-3.658 -7.533,-5.629c-1.179,-0.988 -2.321,-1.988 -3.413,-3.021c-1.108,-0.962 -2.208,-1.817 -3.233,-2.762c-4.133,-3.705 -7.525,-7.513 -9.888,-10.488c-1.187,-1.45 -2.079,-2.842 -2.716,-3.679c-0.63,-0.888 -0.95,-1.434 -0.95,-1.434c-0,0 0.525,-0.295 1.487,-0.72c0.954,-0.38 2.392,-1.084 4.171,-1.663c3.575,-1.25 8.667,-2.583 14.708,-3.312c1.517,-0.196 3.071,-0.292 4.7,-0.434c1.584,-0.025 3.205,0.025 4.863,0.113c3.321,0.179 6.792,0.554 10.333,1.133c3.529,0.6 7.196,1.279 10.642,2.571c3.496,1.196 6.979,2.596 10.391,4.142c1.688,0.816 3.405,1.575 5.03,2.491c1.616,0.929 3.187,1.929 4.733,2.934c3.092,2.02 6.033,4.187 8.767,6.433c2.708,2.3 5.141,4.817 7.375,7.267c2.229,2.458 4.208,4.946 5.883,7.454c1.675,2.508 3.108,4.908 4.279,7.133c1.175,2.254 2.092,4.4 2.754,6.179c0.704,1.754 1.071,3.317 1.363,4.313c0.271,1.029 0.371,1.633 0.371,1.633Z" style="fill:#313439;fill-rule:nonzero;"/><path d="M139.967,364.121c-0,-0 0.27,-0.471 0.795,-1.225c0.534,-0.709 1.292,-1.904 2.305,-3.104c2.008,-2.5 4.937,-5.634 8.566,-8.563c3.63,-2.937 7.955,-5.712 12.713,-7.821c2.346,-1.066 4.846,-1.975 7.604,-2.62c2.708,-0.676 5.483,-1.18 8.283,-1.509c2.8,-0.292 5.604,-0.475 8.405,-0.375c2.837,0.192 5.641,0.617 8.341,1.192c2.696,0.571 5.304,1.316 7.729,2.216c2.33,0.95 4.538,2.125 6.571,3.255c4.071,2.341 7.463,4.987 9.838,7.154c1.187,1.041 2.116,2.108 2.754,2.725c0.637,0.666 0.975,1.096 0.975,1.096c-0,-0 -0.329,0.441 -0.942,1.125c-0.612,0.637 -1.512,1.733 -2.662,2.808c-2.292,2.237 -5.567,4.987 -9.492,7.446c-1.967,1.196 -4.092,2.433 -6.342,3.454c-2.154,1.112 -4.37,2.113 -6.671,2.942c-2.291,0.825 -4.649,1.512 -7.054,1.97c-2.421,0.575 -4.916,1.076 -7.412,1.35c-2.5,0.275 -5.025,0.363 -7.538,0.284c-2.466,-0.109 -5.083,-0.317 -7.683,-0.663c-5.142,-0.7 -10.058,-2.166 -14.35,-3.987c-4.292,-1.808 -7.962,-4.004 -10.571,-5.846c-1.3,-0.875 -2.358,-1.812 -3.062,-2.342c-0.709,-0.579 -1.1,-0.962 -1.1,-0.962Z" style="fill:#313439;fill-rule:nonzero;"/><path d="M160.813,245.542c-0,-0 0.512,-0.28 1.424,-0.675c0.9,-0.355 2.271,-1.025 3.905,-1.58c3.308,-1.179 7.891,-2.458 13.125,-3.204c5.229,-0.754 11.125,-1.004 17.154,-0.441c3.004,0.241 6.083,0.741 9.171,1.529c3.079,0.754 6.158,1.687 9.175,2.787c6.016,2.234 11.808,5.113 16.916,8.554c2.517,1.746 4.884,3.609 7.059,5.538c2.179,1.904 4.137,3.967 5.925,5.908c1.766,1.996 3.325,3.946 4.658,5.813c1.325,1.879 2.437,3.637 3.3,5.175c0.883,1.492 1.483,2.9 1.925,3.758c0.429,0.9 0.629,1.45 0.629,1.45c0,0 -0.529,0.25 -1.467,0.6c-0.916,0.313 -2.324,0.913 -3.991,1.379c-3.354,1.013 -7.984,2.088 -13.229,2.634c-2.609,0.237 -5.405,0.441 -8.254,0.391c-2.859,-0.029 -5.8,-0.233 -8.767,-0.62c-5.938,-0.659 -11.938,-2.134 -17.704,-4.263c-5.805,-2.133 -11.159,-5.042 -16.346,-8.275c-5.121,-3.25 -9.633,-7.054 -13.321,-10.85c-3.692,-3.788 -6.542,-7.604 -8.438,-10.563c-0.962,-1.437 -1.637,-2.808 -2.133,-3.637c-0.479,-0.871 -0.716,-1.408 -0.716,-1.408Z" style="fill:#313439;fill-rule:nonzero;"/><path d="M277.421,158.963c-0,-0 0.562,0.149 1.492,0.491c0.891,0.367 2.337,0.829 3.895,1.567c3.196,1.429 7.371,3.666 11.638,6.733c2.108,1.533 4.325,3.221 6.392,5.421c2.1,2.129 4.162,4.483 6.125,7.025c0.987,1.271 1.933,2.6 2.866,3.954c0.842,1.409 1.679,2.842 2.459,4.321c1.545,2.967 3.037,5.996 4.212,9.217c1.079,3.287 1.996,6.637 2.708,9.966c0.65,3.346 0.871,6.73 1.013,9.988c0.137,3.271 -0.217,6.283 -0.571,9.246c-0.346,2.983 -1.054,5.616 -1.717,8.145c-0.721,2.517 -1.546,4.896 -2.346,6.95c-0.816,2.084 -1.637,3.938 -2.425,5.501c-0.729,1.554 -1.549,2.845 -1.999,3.704c-0.496,0.866 -0.834,1.35 -0.834,1.35c0,-0 -0.504,-0.28 -1.325,-0.838c-0.771,-0.567 -2.062,-1.367 -3.396,-2.475c-1.387,-1.096 -2.933,-2.471 -4.591,-4.096c-1.679,-1.641 -3.296,-3.471 -4.975,-5.533c-1.617,-2.046 -3.309,-4.379 -4.821,-6.625c-1.554,-2.254 -2.904,-4.817 -4.292,-7.183c-1.383,-2.384 -2.542,-4.888 -3.662,-7.413c-1.2,-2.496 -2.23,-5.071 -3.088,-7.704c-0.946,-2.65 -1.9,-5.354 -2.579,-8.104c-0.354,-1.371 -0.646,-2.758 -0.917,-4.146c-0.312,-1.383 -0.621,-2.754 -0.858,-4.138c-0.483,-2.762 -0.792,-5.533 -0.942,-8.266c-0.1,-2.696 -0.204,-5.517 -0.25,-8.129c-0.008,-5.25 0.609,-9.942 1.313,-13.363c0.308,-1.687 0.783,-3.137 1.004,-4.071c0.262,-0.954 0.471,-1.495 0.471,-1.495Z" style="fill:#313439;fill-rule:nonzero;"/><path d="M368.3,169.258c-0,0 0.229,0.509 0.533,1.396c0.259,0.871 0.788,2.225 1.171,3.8c0.846,3.188 1.667,7.546 1.904,12.4c0.071,2.421 0.113,5.013 0.138,7.509c-0.021,2.529 -0.196,5.087 -0.546,7.633c-0.325,2.579 -0.913,4.983 -1.537,7.642c-0.655,2.599 -1.471,5.166 -2.459,7.674c-2.091,4.955 -4.408,9.83 -7.55,14.105c-1.554,2.15 -3.083,4.216 -4.796,6.116c-1.645,1.917 -3.546,3.65 -5.216,5.275c-3.479,3.213 -7.071,5.775 -9.813,7.538c-1.341,0.896 -2.646,1.55 -3.408,2.025c-0.821,0.466 -1.329,0.708 -1.329,0.708c-0,0 -0.334,-0.442 -0.821,-1.254c-0.45,-0.804 -1.238,-2.025 -1.921,-3.512c-0.729,-1.492 -1.517,-3.313 -2.217,-5.342c-0.696,-2.025 -1.325,-4.288 -1.862,-6.738c-0.508,-2.446 -0.875,-5.033 -1.042,-7.733c-0.154,-2.692 -0.221,-5.525 0.054,-8.337c0.267,-2.817 0.696,-5.692 1.363,-8.538c0.621,-2.863 1.546,-5.667 2.65,-8.4c1.104,-2.737 2.379,-5.404 3.791,-7.954c1.342,-2.546 3.188,-5.038 4.955,-7.313c1.804,-2.283 3.716,-4.391 5.675,-6.291c1.925,-1.967 4.012,-3.471 6.012,-4.817c4.038,-2.704 8.025,-4.642 11.088,-5.858c1.491,-0.638 2.891,-1.021 3.745,-1.33c0.896,-0.283 1.438,-0.404 1.438,-0.404Z" style="fill:#313439;fill-rule:nonzero;"/><path d="M132.2,454.062c-0,0 0.117,-0.612 0.413,-1.658c0.32,-1.012 0.716,-2.6 1.462,-4.383c0.708,-1.813 1.675,-3.971 2.9,-6.284c1.229,-2.266 2.725,-4.708 4.467,-7.262c3.466,-5.129 8.191,-10.192 13.679,-15.096c2.816,-2.304 5.846,-4.542 9.029,-6.625c3.179,-2.083 6.475,-4.104 10.021,-5.671c3.521,-1.612 7.104,-3.083 10.7,-4.35c1.812,-0.612 3.579,-1.25 5.421,-1.695c1.854,-0.417 3.691,-0.805 5.521,-1.117c3.654,-0.642 7.229,-1.075 10.654,-1.309c1.712,-0.116 3.379,-0.187 5.012,-0.191c1.646,0.033 3.279,0.175 4.834,0.333c6.241,0.654 11.491,1.929 15.17,3.142c1.834,0.558 3.313,1.25 4.292,1.616c0.987,0.413 1.529,0.705 1.529,0.705c0,-0 -0.333,0.55 -0.987,1.45c-0.667,0.85 -1.596,2.254 -2.834,3.712c-2.454,3.021 -5.971,6.879 -10.245,10.634c-2.125,1.837 -4.43,3.829 -6.867,5.933c-2.442,2.021 -5.05,3.967 -7.796,5.779c-1.367,0.917 -2.783,1.775 -4.217,2.629c-1.429,0.884 -2.87,1.783 -4.329,2.692c-2.937,1.746 -5.987,3.342 -9.112,4.787c-3.163,1.354 -6.284,2.85 -9.463,4.129c-3.175,1.275 -6.412,2.351 -9.65,3.246c-3.179,1.009 -6.337,1.863 -9.454,2.521c-3.117,0.667 -6.213,1.092 -9.038,1.567c-2.879,0.404 -5.62,0.675 -8.141,0.804c-2.492,0.142 -4.696,0.233 -6.638,0.212c-1.896,0.021 -3.562,-0.141 -4.621,-0.129c-1.087,-0.037 -1.712,-0.121 -1.712,-0.121Z" style="fill:#313439;fill-rule:nonzero;"/></g></g><path d="M292.296,472.625c-0,10.767 -8.729,19.504 -19.504,19.504c-10.771,0 -19.5,-8.737 -19.5,-19.504c-0,-10.771 8.729,-19.508 19.5,-19.508c10.775,-0 19.504,8.737 19.504,19.508Z" style="fill:#f8f2e7;fill-rule:nonzero;"/><path d="M402.283,472.625c0,10.767 -8.737,19.504 -19.512,19.504c-10.771,0 -19.5,-8.737 -19.5,-19.504c-0,-10.771 8.729,-19.508 19.5,-19.508c10.775,-0 19.512,8.737 19.512,19.508Z" style="fill:#f8f2e7;fill-rule:nonzero;"/></svg>