<?xml version="1.0" encoding="UTF-8" standalone="no"?><!DOCTYPE svg PUBLIC "-//W3C//DTD SVG 1.1//EN" "http://www.w3.org/Graphics/SVG/1.1/DTD/svg11.dtd"><svg width="100%" height="100%" viewBox="0 0 645 645" version="1.1" xmlns="http://www.w3.org/2000/svg" xmlns:xlink="http://www.w3.org/1999/xlink" xml:space="preserve" xmlns:serif="http://www.serif.com/" style="fill-rule:evenodd;clip-rule:evenodd;stroke-linejoin:round;stroke-miterlimit:2;"><path d="M644.479,322.246c0,177.962 -144.271,322.237 -322.246,322.237c-177.962,0 -322.233,-144.275 -322.233,-322.237c-0,-177.975 144.271,-322.246 322.233,-322.246c177.975,0 322.246,144.271 322.246,322.246Z" style="fill:#185788;fill-rule:nonzero;"/><path d="M240.633,155.179c0,-0.233 -3.075,-4.379 -7.554,-8.575c-9.116,-8.529 -26.375,-21.137 -51.317,-24.837c-38.695,-5.805 -102.049,30.054 -110.67,146.225c-8.588,116.158 38.283,127.62 74.85,127.62c30.321,0 65.329,-21.412 92.004,-51.833c17.096,-63.654 2.687,-188.533 2.687,-188.6Z" style="fill:#ccc8bf;fill-rule:nonzero;"/><path d="M406.429,156.554c0,-0.233 3.071,-4.375 7.554,-8.575c9.109,-8.529 26.375,-21.137 51.309,-24.842c38.704,-5.804 99.42,27.421 108.041,143.592c8.596,116.154 -35.641,130.263 -72.208,130.263c-30.317,-0 -65.325,-21.417 -92.008,-51.838c-17.096,-63.658 -2.688,-188.537 -2.688,-188.6Z" style="fill:#ccc8bf;fill-rule:nonzero;"/><path d="M472.325,495.479c-1.9,-7.65 13.412,-9.1 16.5,-33.458c3.108,-24.404 -16.488,-0.95 -16.488,-0.95c0,-0 -14.345,16.5 -71.695,12.887c-52.838,-3.296 -38.184,-66.495 -37.992,-88.062c0.054,-6.171 2.1,-11.684 3.975,-12.442c1.879,-0.737 7.075,2.042 10.292,7.271c7.983,12.892 15.087,33.842 18.971,46.529c1.816,5.863 6.204,6.683 8.362,0.917c7.042,-19.163 1.887,-45.367 -3.062,-62.471c-1.684,-5.904 2.066,-11.996 4.079,-17.025c52.204,-130.646 1.466,-192.862 1.466,-192.383c-0.012,0.45 -3.566,-2.688 -8.329,-6.584c-20.854,-17.066 -47.083,-27.225 -75.542,-27.225c-28.108,0 -53.983,9.892 -74.729,26.521c-3.562,2.858 -6.433,5.392 -7.679,6.417c-53.812,98.162 -5.062,188.216 -3.3,189.937c1.796,1.734 3.138,3.067 2.975,2.95c-0.137,-0.116 -2.112,4.425 -4.025,10.275c-5.246,16.15 -13.304,47.538 -5.225,69.559c2.129,5.77 6.554,4.987 8.346,-0.888c4.304,-14.016 12.562,-38.179 21.529,-50.317c3.638,-4.954 7.921,-2.145 7.725,3.996c-1.146,37.379 -5.983,71.629 49.517,115.755c47.958,38.124 87.467,24.958 132.758,22.158c6.15,-0.379 14.517,-2.238 20.584,-1.146c3.72,0.662 8.474,1.058 14.383,0.742c17.192,-0.979 -11.475,-15.321 -13.396,-22.963Z" style="fill:#e0dcd3;fill-rule:nonzero;"/><path d="M252.713,335.725l-15.559,10.258c-10.987,39.396 -9.633,67.696 -9.633,67.696c11.071,50.192 14.529,9.946 19.887,-5.821c5.346,-15.771 19.925,-29.229 19.925,-29.229l-14.62,-42.904Z" style="fill:#f8f2e7;fill-rule:nonzero;"/><path d="M399.312,345.983l-18.241,-10.258l-17.133,42.904c-0,0 17.079,13.458 23.362,29.229c6.275,15.767 10.317,56.013 23.296,5.821c-0,0 1.596,-28.3 -11.284,-67.696Z" style="fill:#f8f2e7;fill-rule:nonzero;"/><path d="M295.975,245.479c-0,9.496 -7.696,17.196 -17.2,17.196c-9.496,-0 -17.192,-7.7 -17.192,-17.196c0,-9.5 7.696,-17.191 17.192,-17.191c9.504,-0 17.2,7.691 17.2,17.191Z" style="fill:#313439;fill-rule:nonzero;"/><path d="M279.975,231.621c0,6.071 -4.917,10.992 -10.987,10.992c-6.067,-0 -10.984,-4.921 -10.984,-10.992c0,-6.063 4.917,-10.979 10.984,-10.979c6.07,-0 10.987,4.916 10.987,10.979Z" style="fill:#fff;fill-rule:nonzero;"/><path d="M352.804,245.479c0,9.496 7.7,17.196 17.192,17.196c9.504,-0 17.2,-7.7 17.2,-17.196c-0,-9.5 -7.696,-17.191 -17.2,-17.191c-9.492,-0 -17.192,7.691 -17.192,17.191Z" style="fill:#313439;fill-rule:nonzero;"/><path d="M368.808,231.621c0,6.071 4.913,10.992 10.988,10.992c6.062,-0 10.979,-4.921 10.979,-10.992c0,-6.063 -4.917,-10.983 -10.979,-10.983c-6.075,-0 -10.988,4.92 -10.988,10.983Z" style="fill:#fff;fill-rule:nonzero;"/></svg>