<?xml version="1.0" encoding="UTF-8" standalone="no"?><!DOCTYPE svg PUBLIC "-//W3C//DTD SVG 1.1//EN" "http://www.w3.org/Graphics/SVG/1.1/DTD/svg11.dtd"><svg width="100%" height="100%" viewBox="0 0 645 736" version="1.1" xmlns="http://www.w3.org/2000/svg" xmlns:xlink="http://www.w3.org/1999/xlink" xml:space="preserve" xmlns:serif="http://www.serif.com/" style="fill-rule:evenodd;clip-rule:evenodd;stroke-linecap:round;stroke-miterlimit:2;"><path d="M644.483,322.246c0,177.962 -144.27,322.237 -322.237,322.237c-177.975,0 -322.246,-144.275 -322.246,-322.237c-0,-177.975 144.271,-322.246 322.246,-322.246c177.967,0 322.237,144.271 322.237,322.246Z" style="fill:#f1592b;fill-rule:nonzero;"/><path d="M315.533,243.221c0,-0 -3.987,125.237 -26.475,127.837c-22.483,2.596 -54.95,-118.425 -54.95,-118.425c0,0 -43.412,-162.583 26.859,-167.471c70.271,-4.879 54.566,158.059 54.566,158.059Z" style="fill:#8a603c;fill-rule:nonzero;"/><path d="M304.271,244.517c-0,-0 -2.888,90.591 -19.15,92.466c-16.267,1.884 -39.742,-85.654 -39.742,-85.654c0,0 -30.516,-139.041 19.471,-142.508c49.979,-3.475 39.421,135.696 39.421,135.696Z" style="fill:#f4dbbd;fill-rule:nonzero;"/><path d="M344.454,243.221c0,-0 3.988,125.237 26.471,127.837c22.483,2.596 54.95,-118.425 54.95,-118.425c0,0 43.421,-162.583 -26.854,-167.471c-70.271,-4.879 -54.567,158.059 -54.567,158.059Z" style="fill:#8a603c;fill-rule:nonzero;"/><path d="M355.713,244.517c-0,-0 2.887,90.591 19.15,92.466c16.266,1.884 39.746,-85.654 39.746,-85.654c-0,0 30.512,-139.041 -19.467,-142.508c-49.984,-3.475 -39.429,135.696 -39.429,135.696Z" style="fill:#f4dbbd;fill-rule:nonzero;"/><path d="M451.696,444.342c20.692,32.195 35.033,115.087 -126.558,115.087c-161.596,0 -134.005,-86.729 -120.201,-115.85c-5.779,-93.758 48.984,-166.05 125.163,-166.05c76.183,0 124.671,70.363 121.596,166.813Z" style="fill:#966b4e;fill-rule:nonzero;"/><path d="M350.583,388.167c0,14.495 11.754,26.25 26.255,26.25c14.491,-0 26.245,-11.755 26.245,-26.25c0,-14.5 -11.754,-26.25 -26.245,-26.25c-14.501,-0 -26.255,11.75 -26.255,26.25Z" style="fill:#f4dbbd;fill-rule:nonzero;"/><path d="M360.154,388.375c0,8.629 6.992,15.617 15.621,15.617c8.617,-0 15.608,-6.988 15.608,-15.617c0,-8.625 -6.991,-15.613 -15.608,-15.613c-8.629,0 -15.621,6.988 -15.621,15.613Z" style="fill:#3d342f;fill-rule:nonzero;"/><path d="M373.537,375.492c0,4.104 3.334,7.433 7.438,7.433c4.109,0 7.437,-3.329 7.437,-7.433c0,-4.113 -3.328,-7.442 -7.437,-7.442c-4.104,0 -7.438,3.329 -7.438,7.442Z" style="fill:#fff;fill-rule:nonzero;"/><path d="M312.808,386.629c0,14.5 -11.745,26.25 -26.245,26.25c-14.496,0 -26.246,-11.75 -26.246,-26.25c-0,-14.492 11.75,-26.242 26.246,-26.242c14.5,0 26.245,11.75 26.245,26.242Z" style="fill:#f4dbbd;fill-rule:nonzero;"/><path d="M299.413,388.375c-0,8.629 -6.992,15.617 -15.621,15.617c-8.621,-0 -15.609,-6.988 -15.609,-15.617c0,-8.625 6.988,-15.613 15.609,-15.613c8.629,0 15.621,6.988 15.621,15.613Z" style="fill:#3d342f;fill-rule:nonzero;"/><path d="M286.029,375.492c0,4.104 -3.333,7.433 -7.441,7.433c-4.109,0 -7.438,-3.329 -7.438,-7.433c-0,-4.113 3.329,-7.442 7.438,-7.442c4.108,0 7.441,3.329 7.441,7.442Z" style="fill:#fff;fill-rule:nonzero;"/><clipPath id="_clip1"><path d="M451.696,444.342c20.692,32.195 35.033,115.087 -126.558,115.087c-161.596,0 -134.005,-86.729 -120.201,-115.85c-5.779,-93.758 48.984,-166.05 125.163,-166.05c76.183,0 124.671,70.363 121.596,166.813Z"/></clipPath><g clip-path="url(#_clip1)"><path d="M403.671,436.688c-27.25,-0 -52.858,7.05 -75.1,19.412c-22.246,-12.362 -47.85,-19.412 -75.104,-19.412c-85.5,-0 -154.804,58.57 -154.804,144.07c-0,85.5 69.304,154.813 154.804,154.813c27.254,-0 52.858,-7.059 75.104,-19.421c22.242,12.362 47.85,19.421 75.1,19.421c85.496,-0 154.804,-69.313 154.804,-154.813c-0,-85.5 -69.308,-144.07 -154.804,-144.07Z" style="fill:#f4dbbd;fill-rule:nonzero;"/></g><path d="M360.246,455.862c0,9.905 -21.117,25.338 -29.567,25.338c-8.446,-0 -33.787,-15.433 -33.787,-25.338c-0,-9.916 14.183,-17.958 31.679,-17.958c17.491,0 31.675,8.042 31.675,17.958Z" style="fill:#3d342f;fill-rule:nonzero;"/><path d="M297.988,517.212c-8.192,0 -17.284,-4.045 -27.105,-12.083c-1.312,-1.079 -1.504,-3.008 -0.437,-4.321c1.071,-1.308 3.004,-1.5 4.316,-0.429c11.492,9.408 21.401,12.629 29.43,9.575c16,-6.083 20.741,-34.717 20.779,-35.004c0.271,-1.675 1.833,-2.821 3.512,-2.55c1.671,0.267 2.813,1.838 2.546,3.508c-0.208,1.329 -5.379,32.438 -24.662,39.775c-2.675,1.025 -5.467,1.529 -8.379,1.529Z" style="fill:#3d342f;fill-rule:nonzero;"/><path d="M354.9,519.896c-2.533,-0 -4.962,-0.458 -7.279,-1.392c-18.334,-7.337 -21.767,-41.337 -21.904,-42.783c-0.163,-1.688 1.071,-3.175 2.754,-3.338c1.683,-0.175 3.187,1.067 3.35,2.754c0.841,8.809 5.742,32.738 18.083,37.68c6.771,2.712 15.4,-0.43 25.646,-9.317c1.283,-1.1 3.213,-0.971 4.321,0.308c1.112,1.275 0.979,3.217 -0.304,4.329c-9.021,7.83 -17.292,11.759 -24.667,11.759Z" style="fill:#3d342f;fill-rule:nonzero;"/><path d="M398.313,475.767c-0,-0 25.033,-24.521 98.595,-35.767" style="fill:none;stroke:#3d342f;stroke-width:8.33px;"/><path d="M402.542,485.217c-0,-0 30.416,-17.409 104.446,-9.696" style="fill:none;stroke:#3d342f;stroke-width:8.33px;"/><path d="M403.808,496.879c0,0 33.546,-10.133 103.95,13.979" style="fill:none;stroke:#3d342f;stroke-width:8.33px;"/><path d="M246.175,472.7c0,-0 -25.033,-24.525 -98.6,-35.754" style="fill:none;stroke:#3d342f;stroke-width:8.33px;"/><path d="M241.942,482.142c-0,-0 -30.417,-17.4 -104.442,-9.688" style="fill:none;stroke:#3d342f;stroke-width:8.33px;"/><path d="M240.675,493.808c0,0 -33.546,-10.129 -103.954,13.988" style="fill:none;stroke:#3d342f;stroke-width:8.33px;"/></svg>