<?xml version="1.0" encoding="UTF-8" standalone="no"?><!DOCTYPE svg PUBLIC "-//W3C//DTD SVG 1.1//EN" "http://www.w3.org/Graphics/SVG/1.1/DTD/svg11.dtd"><svg width="100%" height="100%" viewBox="0 0 645 645" version="1.1" xmlns="http://www.w3.org/2000/svg" xmlns:xlink="http://www.w3.org/1999/xlink" xml:space="preserve" xmlns:serif="http://www.serif.com/" style="fill-rule:evenodd;clip-rule:evenodd;stroke-linejoin:round;stroke-miterlimit:2;"><path d="M644.483,322.242c0,177.966 -144.275,322.241 -322.237,322.241c-177.975,0 -322.246,-144.275 -322.246,-322.241c-0,-177.971 144.271,-322.242 322.246,-322.242c177.962,0 322.237,144.271 322.237,322.242Z" style="fill:#185788;fill-rule:nonzero;"/><path d="M576.533,313.721c0,34.371 -27.866,62.229 -62.233,62.229c-34.371,-0 -62.238,-27.858 -62.238,-62.229c0,-34.375 27.867,-62.238 62.238,-62.238c34.367,0 62.233,27.863 62.233,62.238Z" style="fill:#7b5736;fill-rule:nonzero;"/><path d="M554.192,313.721c-0,22.033 -17.855,39.892 -39.892,39.892c-22.033,-0 -39.896,-17.859 -39.896,-39.892c0,-22.038 17.863,-39.896 39.896,-39.896c22.037,-0 39.892,17.858 39.892,39.896Z" style="fill:#f4dbbd;fill-rule:nonzero;"/><path d="M192.421,305.762c-0,34.367 -27.867,62.23 -62.233,62.23c-34.371,-0 -62.234,-27.863 -62.234,-62.23c0,-34.375 27.863,-62.237 62.234,-62.237c34.366,-0 62.233,27.862 62.233,62.237Z" style="fill:#7b5736;fill-rule:nonzero;"/><path d="M170.083,305.762c0,22.03 -17.866,39.892 -39.895,39.892c-22.038,0 -39.892,-17.862 -39.892,-39.892c-0,-22.037 17.854,-39.895 39.892,-39.895c22.029,-0 39.895,17.858 39.895,39.895Z" style="fill:#f4dbbd;fill-rule:nonzero;"/><path d="M516.321,321.613c-0,107.966 -87.521,195.483 -195.483,195.483c-107.963,-0 -195.48,-87.517 -195.48,-195.483c0,-107.963 87.517,-195.484 195.48,-195.484c107.962,0 195.483,87.521 195.483,195.484Z" style="fill:#8a603c;fill-rule:nonzero;"/><path d="M486.279,307.021c0.175,-47.008 -37.792,-85.263 -84.8,-85.442c-36.762,-0.142 -68.175,23.05 -80.2,55.65c-11.787,-32.687 -43.017,-56.117 -79.779,-56.254c-47.012,-0.179 -85.267,37.787 -85.446,84.796c-0.179,47.008 37.788,85.262 84.796,85.446c1.3,-0 2.583,-0.034 3.871,-0.088c-5.529,14.392 -8.675,29.063 -8.675,42.113c-0,47.004 38.108,85.112 85.116,85.112c47.013,0 85.121,-38.108 85.121,-85.112c0,-12.859 -2.67,-27.292 -7.487,-41.484c0.679,0.021 1.354,0.059 2.033,0.059c47.017,0.179 85.267,-37.784 85.45,-84.796Z" style="fill:#f4dbbd;fill-rule:nonzero;"/><path d="M356.433,309.113c0,24.291 19.688,43.97 43.975,43.97c24.292,0 43.971,-19.679 43.971,-43.97c0,-24.288 -19.679,-43.971 -43.971,-43.971c-24.287,-0 -43.975,19.683 -43.975,43.971Z" style="fill:#d1bea6;fill-rule:nonzero;"/><path d="M372.467,309.471c-0,14.45 11.712,26.158 26.158,26.158c14.446,0 26.163,-11.708 26.163,-26.158c-0,-14.446 -11.717,-26.163 -26.163,-26.163c-14.446,0 -26.158,11.717 -26.158,26.163Z" style="fill:#3d342f;fill-rule:nonzero;"/><path d="M394.892,287.879c-0,6.879 5.57,12.454 12.45,12.454c6.883,0 12.466,-5.575 12.466,-12.454c0,-6.883 -5.583,-12.458 -12.466,-12.458c-6.88,-0 -12.45,5.575 -12.45,12.458Z" style="fill:#fff;fill-rule:nonzero;"/><path d="M286.738,309.113c-0,24.291 -19.68,43.97 -43.967,43.97c-24.292,0 -43.975,-19.679 -43.975,-43.97c-0,-24.288 19.683,-43.971 43.975,-43.971c24.287,-0 43.967,19.683 43.967,43.971Z" style="fill:#d1bea6;fill-rule:nonzero;"/><path d="M270.708,309.471c0,14.45 -11.712,26.158 -26.158,26.158c-14.446,0 -26.162,-11.708 -26.162,-26.158c-0,-14.446 11.716,-26.163 26.162,-26.163c14.446,0 26.158,11.717 26.158,26.163Z" style="fill:#3d342f;fill-rule:nonzero;"/><path d="M248.283,287.879c0,6.879 -5.571,12.454 -12.45,12.454c-6.883,0 -12.458,-5.575 -12.458,-12.454c0,-6.883 5.575,-12.458 12.458,-12.458c6.879,-0 12.45,5.575 12.45,12.458Z" style="fill:#fff;fill-rule:nonzero;"/><path d="M340.046,451.667c-0,9.287 -7.529,16.821 -16.825,16.821c-9.292,-0 -16.817,-7.534 -16.817,-16.821c0,-9.292 7.525,-16.825 16.817,-16.825c9.296,-0 16.825,7.533 16.825,16.825Z" style="fill:#3d342f;fill-rule:nonzero;"/></svg>