<?xml version="1.0" encoding="UTF-8" standalone="no"?><!DOCTYPE svg PUBLIC "-//W3C//DTD SVG 1.1//EN" "http://www.w3.org/Graphics/SVG/1.1/DTD/svg11.dtd"><svg width="100%" height="100%" viewBox="0 0 645 674" version="1.1" xmlns="http://www.w3.org/2000/svg" xmlns:xlink="http://www.w3.org/1999/xlink" xml:space="preserve" xmlns:serif="http://www.serif.com/" style="fill-rule:evenodd;clip-rule:evenodd;stroke-linejoin:round;stroke-miterlimit:2;"><path d="M62.608,0l-0.008,0.004c0.013,0.025 0.037,0.063 0.054,0.088c-0.008,-0.034 -0.041,-0.063 -0.046,-0.092Z" style="fill:#08171b;fill-rule:nonzero;"/><path d="M644.479,351.271c0,177.966 -144.271,322.237 -322.246,322.237c-177.962,0 -322.233,-144.271 -322.233,-322.237c-0,-177.975 144.271,-322.246 322.233,-322.246c177.975,0 322.246,144.271 322.246,322.246Z" style="fill:#61a5a2;fill-rule:nonzero;"/><path d="M381.992,207.083c-18.017,25.384 -10.459,61.696 16.866,81.105c27.342,19.399 64.109,14.554 82.125,-10.821c18.013,-25.375 21.375,-100.513 10.088,-111.584c-11.275,-11.062 -91.05,15.929 -109.079,41.3Z" style="fill:#ec692a;fill-rule:nonzero;"/><path d="M395.583,225.087c-10.087,16.905 -3.508,39.413 14.7,50.259c18.205,10.867 41.142,5.975 51.242,-10.934c10.071,-16.904 23.812,-74.658 10.863,-81.229c-12.963,-6.562 -66.717,24.984 -76.805,41.904Z" style="fill:#f4dbbd;fill-rule:nonzero;"/><path d="M271.562,207.083c18.017,25.384 10.459,61.696 -16.87,81.105c-27.334,19.399 -64.096,14.554 -82.117,-10.821c-18.025,-25.375 -21.379,-100.513 -10.096,-111.584c11.279,-11.062 91.054,15.929 109.083,41.3Z" style="fill:#ec692a;fill-rule:nonzero;"/><path d="M257.967,225.087c10.087,16.905 3.508,39.413 -14.705,50.259c-18.204,10.867 -41.137,5.975 -51.233,-10.934c-10.075,-16.904 -23.821,-74.658 -10.862,-81.229c12.958,-6.562 66.721,24.984 76.8,41.904Z" style="fill:#f4dbbd;fill-rule:nonzero;"/><path d="M529.104,446.992c-2.5,-1.817 -5.746,-3.571 -9.583,-5.175c1.029,0.633 1.967,1.191 2.862,1.704c2.463,1.083 4.717,2.246 6.721,3.471Z" style="fill:#f7f5d0;fill-rule:nonzero;"/><path d="M529.104,446.992c-2.004,-1.225 -4.258,-2.388 -6.721,-3.471c4.067,2.337 6.721,3.471 6.721,3.471Z" style="fill:#f7f5d0;fill-rule:nonzero;"/><path d="M127.954,441.817c-3.837,1.604 -7.083,3.358 -9.591,5.175c2.008,-1.225 4.254,-2.388 6.724,-3.471c0.913,-0.513 1.85,-1.071 2.867,-1.704Z" style="fill:#f7f5d0;fill-rule:nonzero;"/><path d="M118.363,446.992c-0,-0 2.666,-1.134 6.724,-3.471c-2.47,1.083 -4.716,2.246 -6.724,3.471Z" style="fill:#f7f5d0;fill-rule:nonzero;"/><path d="M323.592,227.4l-0,0.008c0.046,0 0.095,-0.008 0.15,-0.008l-0.15,-0Z" style="fill:#ea632f;fill-rule:nonzero;"/><path d="M323.896,227.4l-0.154,-0c0.045,-0 0.1,0.008 0.154,0.008l-0,-0.008Z" style="fill:#a94824;fill-rule:nonzero;"/><path d="M481.5,384.654c0,-86.754 -70.242,-157.079 -156.95,-157.246l-0,-0.008c-0.054,-0 -0.104,0.008 -0.163,0.008c-0.041,0 -0.087,-0.008 -0.145,-0.008l-0,0.008l-0.434,0l0,-0.008c-0.05,-0 -0.095,0.008 -0.154,0.008c-0.05,0 -0.096,-0.008 -0.15,-0.008l0,0.008c-86.708,0.167 -156.954,70.492 -156.954,157.246c-0,2.042 -37.775,44.663 -11.967,95.571c14.275,28.15 93.042,58.233 168.088,59.058c79.583,0.875 155.662,-29.212 170.8,-59.058c25.808,-50.908 -11.971,-93.529 -11.971,-95.571Z" style="fill:#ec692a;fill-rule:nonzero;"/><path d="M363.363,359.696c-0,13.312 10.804,24.108 24.116,24.108c13.313,0 24.117,-10.796 24.117,-24.108c-0,-13.317 -10.804,-24.121 -24.117,-24.121c-13.312,-0 -24.116,10.804 -24.116,24.121Z" style="fill:#3b3e43;fill-rule:nonzero;"/><path d="M382.05,340.758c-0,6.992 5.671,12.659 12.658,12.659c6.992,-0 12.667,-5.667 12.667,-12.659c-0,-6.996 -5.675,-12.662 -12.667,-12.662c-6.987,-0 -12.658,5.666 -12.658,12.662Z" style="fill:#fff;fill-rule:nonzero;"/><path d="M292.058,359.696c0,13.312 -10.796,24.108 -24.104,24.108c-13.316,0 -24.108,-10.796 -24.108,-24.108c-0,-13.317 10.792,-24.121 24.108,-24.121c13.308,-0 24.104,10.804 24.104,24.121Z" style="fill:#3b3e43;fill-rule:nonzero;"/><path d="M273.383,340.758c0,6.992 -5.67,12.659 -12.658,12.659c-6.996,-0 -12.662,-5.667 -12.662,-12.659c-0,-6.996 5.666,-12.662 12.662,-12.662c6.988,-0 12.658,5.666 12.658,12.662Z" style="fill:#fff;fill-rule:nonzero;"/><clipPath id="_clip1"><path d="M481.5,384.654c0,-86.754 -70.242,-157.079 -156.95,-157.246l-0,-0.008c-0.054,-0 -0.104,0.008 -0.163,0.008c-0.041,0 -0.087,-0.008 -0.145,-0.008l-0,0.008l-0.434,0l0,-0.008c-0.05,-0 -0.095,0.008 -0.154,0.008c-0.05,0 -0.096,-0.008 -0.15,-0.008l0,0.008c-86.708,0.167 -156.954,70.492 -156.954,157.246c-0,2.042 -37.775,44.663 -11.967,95.571c14.275,28.15 93.042,58.233 168.088,59.058c79.583,0.875 155.662,-29.212 170.8,-59.058c25.808,-50.908 -11.971,-93.529 -11.971,-95.571Z"/></clipPath><g clip-path="url(#_clip1)"><path d="M439.883,493.167c0,36.629 -52.479,66.321 -117.212,66.321c-64.725,-0 -117.208,-29.692 -117.208,-66.321c-0,-36.625 52.483,-66.325 117.208,-66.325c64.733,-0 117.212,29.7 117.212,66.325Z" style="fill:#f4dbbd;fill-rule:nonzero;"/></g><path d="M356.754,427.088c0,12.216 -14.267,27.429 -31.858,27.429c-17.588,-0 -31.846,-15.213 -31.846,-27.429c0,-12.213 14.258,-22.109 31.846,-22.109c17.591,0 31.858,9.896 31.858,22.109Z" style="fill:#3b3e43;fill-rule:nonzero;"/><path d="M291.696,491.892c-8.729,-0 -18.409,-4.313 -28.879,-12.88c-1.404,-1.141 -1.613,-3.199 -0.467,-4.591c1.15,-1.392 3.208,-1.604 4.6,-0.463c12.246,10.021 22.804,13.455 31.354,10.196c17.046,-6.479 22.1,-36.991 22.15,-37.296c0.279,-1.787 1.95,-3 3.738,-2.716c1.779,0.291 2.995,1.966 2.716,3.737c-0.216,1.417 -5.733,34.563 -26.283,42.379c-2.858,1.092 -5.829,1.634 -8.929,1.634Z" style="fill:#3b3e43;fill-rule:nonzero;"/><path d="M352.338,494.75c-2.688,-0 -5.284,-0.488 -7.751,-1.475c-19.537,-7.821 -23.195,-44.058 -23.345,-45.592c-0.171,-1.8 1.141,-3.391 2.937,-3.562c1.792,-0.179 3.396,1.142 3.571,2.941c0.9,9.38 6.113,34.892 19.271,40.142c7.208,2.888 16.4,-0.45 27.325,-9.916c1.371,-1.184 3.425,-1.038 4.612,0.324c1.175,1.363 1.029,3.421 -0.325,4.617c-9.625,8.329 -18.429,12.521 -26.295,12.521Z" style="fill:#3b3e43;fill-rule:nonzero;"/><path d="M345.65,420.471c-0.746,2.933 -5.092,4.35 -9.708,3.175c-4.621,-1.163 -7.755,-4.496 -7.017,-7.429c0.742,-2.93 5.092,-4.35 9.717,-3.18c4.608,1.176 7.754,4.5 7.008,7.434Z" style="fill:#fff;fill-rule:nonzero;"/><path d="M244.108,452.85c-0.883,-0 -1.775,-0.338 -2.458,-1.004c-0.471,-0.454 -38.471,-36.233 -145.846,-52.642c-1.925,-0.292 -3.246,-2.091 -2.95,-4.012c0.292,-1.921 2.054,-3.254 4.017,-2.946c110.108,16.816 148.142,53.025 149.704,54.562c1.392,1.359 1.408,3.592 0.05,4.979c-0.688,0.705 -1.604,1.063 -2.517,1.063Z" style="fill:#3d342f;fill-rule:nonzero;"/><path d="M237.762,467c-0.595,-0 -1.191,-0.146 -1.737,-0.458c-0.558,-0.309 -46.371,-25.321 -154.421,-14.092c-1.954,0.204 -3.662,-1.2 -3.862,-3.142c-0.204,-1.929 1.196,-3.662 3.137,-3.862c110.783,-11.538 156.738,13.883 158.638,14.975c1.683,0.967 2.275,3.121 1.308,4.812c-0.65,1.134 -1.842,1.767 -3.063,1.767Z" style="fill:#3d342f;fill-rule:nonzero;"/><path d="M80.079,505.433c-1.462,0 -2.833,-0.92 -3.333,-2.379c-0.634,-1.846 0.346,-3.85 2.192,-4.479c105.366,-36.087 155.854,-21.612 157.945,-20.987c1.863,0.562 2.917,2.533 2.354,4.391c-0.554,1.863 -2.52,2.904 -4.383,2.354c-0.5,-0.141 -50.746,-14.333 -153.633,20.909c-0.375,0.125 -0.767,0.191 -1.142,0.191Z" style="fill:#3d342f;fill-rule:nonzero;"/><path d="M400.367,458.296c-0.909,-0 -1.83,-0.354 -2.513,-1.059c-1.366,-1.387 -1.346,-3.62 0.046,-4.979c1.567,-1.529 39.592,-37.741 149.7,-54.562c1.958,-0.3 3.725,1.029 4.017,2.946c0.3,1.92 -1.025,3.725 -2.946,4.016c-107.888,16.475 -145.475,52.271 -145.842,52.629c-0.683,0.676 -1.575,1.009 -2.462,1.009Z" style="fill:#3d342f;fill-rule:nonzero;"/><path d="M406.721,472.45c-1.229,0 -2.417,-0.642 -3.071,-1.779c-0.958,-1.692 -0.371,-3.838 1.313,-4.8c1.9,-1.088 47.841,-26.509 158.633,-14.971c1.933,0.2 3.341,1.933 3.137,3.867c-0.2,1.929 -1.912,3.341 -3.87,3.137c-108.18,-11.254 -153.959,13.834 -154.405,14.088c-0.554,0.312 -1.15,0.458 -1.737,0.458Z" style="fill:#3d342f;fill-rule:nonzero;"/><path d="M564.4,510.883c-0.375,0 -0.763,-0.058 -1.142,-0.183c-102.879,-35.238 -153.133,-21.054 -153.633,-20.908c-1.854,0.545 -3.829,-0.505 -4.383,-2.363c-0.559,-1.866 0.491,-3.825 2.354,-4.383c2.096,-0.638 52.579,-15.1 157.95,20.983c1.837,0.629 2.821,2.633 2.183,4.471c-0.5,1.467 -1.862,2.383 -3.329,2.383Z" style="fill:#3d342f;fill-rule:nonzero;"/></svg>