<?xml version="1.0" encoding="UTF-8" standalone="no"?><!DOCTYPE svg PUBLIC "-//W3C//DTD SVG 1.1//EN" "http://www.w3.org/Graphics/SVG/1.1/DTD/svg11.dtd"><svg width="100%" height="100%" viewBox="0 0 645 645" version="1.1" xmlns="http://www.w3.org/2000/svg" xmlns:xlink="http://www.w3.org/1999/xlink" xml:space="preserve" xmlns:serif="http://www.serif.com/" style="fill-rule:evenodd;clip-rule:evenodd;stroke-linejoin:round;stroke-miterlimit:2;"><path d="M644.479,322.242c0,177.966 -144.271,322.241 -322.237,322.241c-177.971,0 -322.242,-144.275 -322.242,-322.241c0,-177.971 144.271,-322.242 322.242,-322.242c177.966,0 322.237,144.271 322.237,322.242Z" style="fill:#f1592b;fill-rule:nonzero;"/><path d="M211.892,231.008c-20.492,-15.579 -2.784,-65.062 3.45,-59.858c4.266,3.554 15.108,22.708 21.979,35.329c-9.408,7.159 -17.95,15.392 -25.429,24.529Zm48.466,-40.304c-6.366,-11.292 -24.879,-41.254 -47.341,-50.812c-27.309,-11.625 -48.529,85.525 -15.8,112.67c-0.384,0.688 -0.721,1.409 -1.1,2.1c28.596,-11.725 50.658,-36.341 64.241,-63.958Z" style="fill:#8a603c;fill-rule:nonzero;"/><path d="M210.413,236.667c8.879,-10.854 19.02,-20.638 30.199,-29.134c-8.162,-14.996 -21.033,-37.746 -26.108,-41.971c-7.408,-6.175 -28.437,52.596 -4.091,71.105Z" style="fill:#3b3e43;fill-rule:nonzero;"/><path d="M423.642,206.479c6.866,-12.621 17.712,-31.775 21.975,-35.329c6.233,-5.204 23.941,44.279 3.45,59.858c-7.479,-9.137 -16.021,-17.37 -25.425,-24.529Zm41.196,48.183c-0.371,-0.691 -0.713,-1.412 -1.096,-2.1c32.729,-27.145 11.512,-124.295 -15.796,-112.67c-22.458,9.558 -40.975,39.52 -47.346,50.812c13.579,27.617 35.646,52.233 64.238,63.958Z" style="fill:#8a603c;fill-rule:nonzero;"/><path d="M450.55,236.667c-8.879,-10.854 -19.029,-20.638 -30.196,-29.134c8.159,-14.996 21.029,-37.746 26.1,-41.971c7.409,-6.175 28.434,52.596 4.096,71.105Z" style="fill:#3b3e43;fill-rule:nonzero;"/><path d="M323.646,164.737l-0,0.009c0.05,-0 0.108,-0.009 0.158,-0.009l-0.158,0Z" style="fill:#ea632f;fill-rule:nonzero;"/><path d="M323.963,164.737l-0.159,0c0.046,0 0.1,0.009 0.159,0.009l-0,-0.009Z" style="fill:#a94824;fill-rule:nonzero;"/><path d="M487.937,328.342c0,-90.25 -73.083,-163.426 -163.291,-163.592l-0,-0.013c-0.054,0 -0.109,0.009 -0.167,0.009c-0.05,-0 -0.091,-0.009 -0.146,-0.009l0,0.013l-0.462,-0l-0,-0.013c-0.05,0 -0.104,0.009 -0.154,0.009c-0.054,-0 -0.1,-0.009 -0.159,-0.009l0,0.013c-90.208,0.166 -163.291,73.342 -163.291,163.592c-0,2.129 -39.313,46.47 -12.45,99.433c14.846,29.288 94.212,26.6 172.296,27.458c82.787,0.909 164.529,3.6 180.279,-27.458c26.854,-52.963 -12.455,-97.304 -12.455,-99.433Z" style="fill:#8a603c;fill-rule:nonzero;"/><path d="M349.404,395.633c0,58.429 -47.371,105.792 -105.8,105.792c-58.433,-0 -105.804,-47.363 -105.804,-105.792c0,-58.433 47.371,-105.804 105.804,-105.804c58.429,-0 105.8,47.371 105.8,105.804Z" style="fill:#8a603c;fill-rule:nonzero;"/><path d="M515.663,399.754c-0,58.429 -47.371,105.8 -105.805,105.8c-58.429,0 -105.804,-47.371 -105.804,-105.8c0,-58.433 47.375,-105.804 105.804,-105.804c58.434,-0 105.805,47.371 105.805,105.804Z" style="fill:#8a603c;fill-rule:nonzero;"/><path d="M240.958,398.458c-0.716,0 -1.433,-0.266 -1.987,-0.804c-0.383,-0.375 -39.979,-37.846 -152.188,-54.987c-1.55,-0.234 -2.608,-1.684 -2.375,-3.234c0.238,-1.546 1.721,-2.587 3.234,-2.375c114.304,17.463 153.679,54.95 155.3,56.538c1.112,1.1 1.133,2.887 0.037,4.008c-0.554,0.567 -1.287,0.854 -2.021,0.854Z" style="fill:#3d342f;fill-rule:nonzero;"/><path d="M234.35,413.183c-0.479,0 -0.958,-0.116 -1.404,-0.366c-0.463,-0.267 -48.271,-26.521 -161.142,-14.763c-1.512,0.15 -2.954,-0.962 -3.116,-2.525c-0.163,-1.554 0.979,-2.954 2.533,-3.112c115.021,-11.992 162.562,14.345 164.541,15.475c1.355,0.774 1.821,2.508 1.051,3.862c-0.517,0.917 -1.484,1.429 -2.463,1.429Z" style="fill:#3d342f;fill-rule:nonzero;"/><path d="M70.3,453.171c-1.179,-0 -2.287,-0.742 -2.687,-1.917c-0.505,-1.479 0.287,-3.096 1.762,-3.6c109.383,-37.466 161.642,-22.491 163.821,-21.829c1.491,0.454 2.346,2.033 1.892,3.529c-0.45,1.5 -2.005,2.35 -3.53,1.9c-0.516,-0.158 -52.97,-15.008 -160.337,21.763c-0.313,0.104 -0.621,0.154 -0.921,0.154Z" style="fill:#3d342f;fill-rule:nonzero;"/><path d="M358.15,372.492c0,12.712 -14.842,28.537 -33.142,28.537c-18.3,0 -33.129,-15.825 -33.129,-28.537c0,-12.705 14.829,-23.009 33.129,-23.009c18.3,0 33.142,10.304 33.142,23.009Z" style="fill:#3b3e43;fill-rule:nonzero;"/><path d="M290.467,439.912c-9.088,0 -19.154,-4.483 -30.054,-13.4c-1.459,-1.183 -1.671,-3.329 -0.476,-4.783c1.184,-1.446 3.334,-1.666 4.78,-0.475c12.746,10.425 23.716,13.996 32.621,10.613c17.737,-6.746 22.999,-38.492 23.041,-38.809c0.292,-1.854 2.029,-3.116 3.896,-2.821c1.85,0.301 3.117,2.042 2.825,3.892c-0.237,1.467 -5.971,35.954 -27.342,44.088c-2.979,1.129 -6.07,1.695 -9.291,1.695Z" style="fill:#3b3e43;fill-rule:nonzero;"/><path d="M353.554,442.892c-2.8,-0 -5.491,-0.513 -8.062,-1.542c-20.329,-8.133 -24.134,-45.829 -24.292,-47.433c-0.179,-1.871 1.196,-3.53 3.058,-3.704c1.867,-0.184 3.534,1.191 3.717,3.062c0.929,9.758 6.358,36.296 20.05,41.762c7.504,3.005 17.067,-0.475 28.429,-10.325c1.413,-1.233 3.563,-1.075 4.8,0.342c1.221,1.421 1.075,3.567 -0.346,4.8c-10.012,8.671 -19.175,13.038 -27.354,13.038Z" style="fill:#3b3e43;fill-rule:nonzero;"/><path d="M346.592,365.608c-0.767,3.05 -5.296,4.525 -10.092,3.309c-4.808,-1.221 -8.071,-4.684 -7.304,-7.734c0.775,-3.045 5.308,-4.525 10.104,-3.308c4.804,1.229 8.067,4.683 7.292,7.733Z" style="fill:#fff;fill-rule:nonzero;"/><path d="M403.525,404.129c-0.737,0 -1.475,-0.283 -2.029,-0.854c-1.088,-1.121 -1.079,-2.908 0.042,-4.004c1.625,-1.592 41.004,-39.075 155.295,-56.538c1.555,-0.225 2.996,0.825 3.238,2.375c0.233,1.546 -0.825,2.992 -2.375,3.234c-112.208,17.137 -151.8,54.608 -152.192,54.983c-0.55,0.538 -1.266,0.804 -1.979,0.804Z" style="fill:#3d342f;fill-rule:nonzero;"/><path d="M410.129,418.854c-0.983,0 -1.941,-0.508 -2.462,-1.425c-0.78,-1.354 -0.313,-3.088 1.054,-3.866c1.962,-1.126 49.542,-27.463 164.541,-15.475c1.555,0.162 2.688,1.558 2.521,3.112c-0.154,1.562 -1.554,2.679 -3.108,2.525c-113.208,-11.775 -160.675,14.487 -161.146,14.758c-0.437,0.255 -0.925,0.371 -1.4,0.371Z" style="fill:#3d342f;fill-rule:nonzero;"/><path d="M574.188,458.842c-0.317,-0 -0.621,-0.05 -0.926,-0.15c-107.358,-36.775 -159.824,-21.917 -160.349,-21.763c-1.517,0.454 -3.075,-0.404 -3.521,-1.904c-0.454,-1.496 0.391,-3.079 1.891,-3.529c2.175,-0.654 54.425,-15.633 163.821,21.829c1.475,0.504 2.267,2.121 1.759,3.604c-0.405,1.175 -1.5,1.913 -2.675,1.913Z" style="fill:#3d342f;fill-rule:nonzero;"/><path d="M289.433,254.904c-21.079,-6.141 -52.108,-6.754 -69.691,33.863c-17.58,40.612 -15.4,74.662 -0,82.108c15.4,7.45 90.941,-18.087 97.329,-46.817c6.383,-28.725 -2.071,-61.708 -27.638,-69.154Z" style="fill:#c3996c;fill-rule:nonzero;"/><path d="M341.117,324.062c6.387,28.726 81.933,54.263 97.329,46.813c15.408,-7.446 17.579,-41.496 -0,-82.104c-17.575,-40.621 -48.613,-40.004 -69.688,-33.867c-25.566,7.45 -34.02,40.433 -27.641,69.158Z" style="fill:#c3996c;fill-rule:nonzero;"/><path d="M365.025,302.383c0,13.846 11.237,25.08 25.092,25.08c13.85,-0 25.087,-11.234 25.087,-25.08c0,-13.858 -11.237,-25.091 -25.087,-25.091c-13.855,-0 -25.092,11.233 -25.092,25.091Z" style="fill:#3b3e43;fill-rule:nonzero;"/><path d="M384.463,282.675c-0,7.279 5.904,13.162 13.174,13.162c7.28,0 13.18,-5.883 13.18,-13.162c-0,-7.279 -5.9,-13.175 -13.18,-13.175c-7.27,-0 -13.174,5.896 -13.174,13.175Z" style="fill:#fff;fill-rule:nonzero;"/><path d="M290.838,302.383c-0,13.846 -11.217,25.08 -25.071,25.08c-13.855,-0 -25.084,-11.234 -25.084,-25.08c0,-13.858 11.229,-25.091 25.084,-25.091c13.854,-0 25.071,11.233 25.071,25.091Z" style="fill:#3b3e43;fill-rule:nonzero;"/><path d="M271.408,282.675c0,7.279 -5.895,13.162 -13.17,13.162c-7.275,0 -13.167,-5.883 -13.167,-13.162c-0,-7.279 5.892,-13.175 13.167,-13.175c7.275,-0 13.17,5.896 13.17,13.175Z" style="fill:#fff;fill-rule:nonzero;"/></svg>