<?xml version="1.0" encoding="UTF-8" standalone="no"?><!DOCTYPE svg PUBLIC "-//W3C//DTD SVG 1.1//EN" "http://www.w3.org/Graphics/SVG/1.1/DTD/svg11.dtd"><svg width="100%" height="100%" viewBox="0 0 645 645" version="1.1" xmlns="http://www.w3.org/2000/svg" xmlns:xlink="http://www.w3.org/1999/xlink" xml:space="preserve" xmlns:serif="http://www.serif.com/" style="fill-rule:evenodd;clip-rule:evenodd;stroke-linejoin:round;stroke-miterlimit:2;"><path d="M644.479,322.242c0,177.966 -144.271,322.241 -322.246,322.241c-177.962,0 -322.233,-144.275 -322.233,-322.241c-0,-177.971 144.271,-322.242 322.233,-322.242c177.975,0 322.246,144.271 322.246,322.242Z" style="fill:#d8d424;fill-rule:nonzero;"/><path d="M533.208,312.537c82.621,152.78 -34.641,202.129 -224.9,202.129c-216.716,0 -256.704,-61.32 -201.695,-203.833c47.204,-122.3 130.887,-137.32 205.983,-137.32c75.092,-0 161.237,29.237 220.612,139.024Z" style="fill:#e0dcd3;fill-rule:nonzero;"/><path d="M517.758,421.329c-19.579,32.479 -71.479,41.304 -132.629,47.738c-32.479,-19.571 -38.946,-135.121 -30.946,-172.184c8.592,-39.691 47.929,-70.087 100.317,-28.762c29.775,23.479 82.833,120.733 63.258,153.208Z" style="fill:#bab7b0;fill-rule:nonzero;"/><path d="M126.087,426.692c19.571,32.479 98.83,41.845 137.98,46.133c32.487,-19.571 44.175,-131.421 33.8,-181.838c-7.634,-37.145 -63.829,-77.245 -114.25,-21.995c-50.425,55.25 -77.109,125.229 -57.53,157.7Z" style="fill:#bab7b0;fill-rule:nonzero;"/><path d="M388.954,329.267c0,19.141 15.521,34.645 34.654,34.645c19.129,0 34.642,-15.504 34.642,-34.645c0,-19.134 -15.513,-34.65 -34.642,-34.65c-19.133,-0 -34.654,15.516 -34.654,34.65Z" style="fill:#fff;fill-rule:nonzero;"/><path d="M406.071,329.558c-0,9.688 7.842,17.538 17.537,17.538c9.684,-0 17.534,-7.85 17.534,-17.538c-0,-9.687 -7.85,-17.533 -17.534,-17.533c-9.695,-0 -17.537,7.846 -17.537,17.533Z" style="fill:#3b3e43;fill-rule:nonzero;"/><path d="M419.654,315.783c0,5.084 4.121,9.209 9.204,9.209c5.088,-0 9.213,-4.125 9.213,-9.209c-0,-5.087 -4.125,-9.208 -9.213,-9.208c-5.083,0 -9.204,4.121 -9.204,9.208Z" style="fill:#fff;fill-rule:nonzero;"/><path d="M255.062,320.496c0,19.137 -15.508,34.65 -34.645,34.65c-19.134,-0 -34.646,-15.513 -34.646,-34.65c-0,-19.129 15.512,-34.65 34.646,-34.65c19.137,-0 34.645,15.521 34.645,34.65Z" style="fill:#fff;fill-rule:nonzero;"/><path d="M237.954,320.792c0,9.683 -7.85,17.533 -17.537,17.533c-9.68,-0 -17.538,-7.85 -17.538,-17.533c0,-9.688 7.858,-17.538 17.538,-17.538c9.687,0 17.537,7.85 17.537,17.538Z" style="fill:#3b3e43;fill-rule:nonzero;"/><path d="M224.371,307.016c-0,5.088 -4.125,9.205 -9.217,9.205c-5.079,-0 -9.204,-4.117 -9.204,-9.205c0,-5.095 4.125,-9.216 9.204,-9.216c5.092,-0 9.217,4.121 9.217,9.216Z" style="fill:#fff;fill-rule:nonzero;"/><path d="M434.717,432.063c-0,35.545 -66.684,64.362 -124.3,64.362c-57.621,-0 -104.325,-28.817 -104.325,-64.362c-0,-35.551 46.704,-64.371 104.325,-64.371c57.616,-0 124.3,28.82 124.3,64.371Z" style="fill:#fff;fill-rule:nonzero;"/><path d="M363.688,427.775c-0,16.608 -19.388,37.275 -43.288,37.275c-23.904,-0 -43.279,-20.667 -43.279,-37.275c-0,-16.596 19.375,-30.054 43.279,-30.054c23.9,-0 43.288,13.458 43.288,30.054Z" style="fill:#3b3e43;fill-rule:nonzero;"/><path d="M348.596,418.775c-1.013,3.988 -6.921,5.921 -13.196,4.325c-6.271,-1.596 -10.537,-6.113 -9.529,-10.096c1.017,-3.983 6.925,-5.917 13.196,-4.325c6.275,1.596 10.541,6.117 9.529,10.096Z" style="fill:#fff;fill-rule:nonzero;"/><path d="M149.463,132.025c-31.471,15.192 1.145,115.862 1.145,115.862l106.604,-62.874c0,-0 -76.275,-68.18 -107.749,-52.988Z" style="fill:#e0dcd3;fill-rule:nonzero;"/><path d="M162.304,146.771c-21.146,10.208 0.779,77.845 0.779,77.845l71.629,-42.241c0,-0 -51.258,-45.817 -72.408,-35.604Z" style="fill:#bab7b0;fill-rule:nonzero;"/><path d="M494.562,132.025c31.467,15.192 -1.154,115.862 -1.154,115.862l-106.596,-62.874c0,-0 76.28,-68.18 107.75,-52.988Z" style="fill:#e0dcd3;fill-rule:nonzero;"/><path d="M481.712,146.771c21.15,10.208 -0.766,77.845 -0.766,77.845l-71.629,-42.241c-0,-0 51.258,-45.817 72.395,-35.604Z" style="fill:#bab7b0;fill-rule:nonzero;"/></svg>