<?xml version="1.0" encoding="UTF-8" standalone="no"?><!DOCTYPE svg PUBLIC "-//W3C//DTD SVG 1.1//EN" "http://www.w3.org/Graphics/SVG/1.1/DTD/svg11.dtd"><svg width="100%" height="100%" viewBox="0 0 645 663" version="1.1" xmlns="http://www.w3.org/2000/svg" xmlns:xlink="http://www.w3.org/1999/xlink" xml:space="preserve" xmlns:serif="http://www.serif.com/" style="fill-rule:evenodd;clip-rule:evenodd;stroke-linecap:round;stroke-miterlimit:2;"><path d="M644.483,322.242c0,177.966 -144.27,322.241 -322.237,322.241c-177.975,0 -322.246,-144.275 -322.246,-322.241c-0,-177.971 144.271,-322.242 322.246,-322.242c177.967,0 322.237,144.271 322.237,322.242Z" style="fill:#61a5a2;fill-rule:nonzero;"/><path d="M558.254,331.158c0,130.338 -111.358,218.188 -235.054,218.188c-123.692,-0 -236.975,-87.85 -236.975,-218.188c0,-130.354 105.663,-236.02 236.013,-236.02c130.341,-0 236.016,105.666 236.016,236.02Z" style="fill:#ec692a;fill-rule:nonzero;"/><path d="M295.3,229.175c0,36.85 -29.879,66.729 -66.721,66.729c-36.858,0 -66.733,-29.879 -66.733,-66.729c-0,-36.858 29.875,-66.729 66.733,-66.729c36.842,-0 66.721,29.871 66.721,66.729Z" style="fill:#e39332;fill-rule:nonzero;"/><path d="M268.617,229.175c-0,22.112 -17.929,40.033 -40.038,40.033c-22.116,0 -40.045,-17.921 -40.045,-40.033c-0,-22.117 17.929,-40.037 40.045,-40.037c22.109,-0 40.038,17.92 40.038,40.037Z" style="fill:#8a603c;fill-rule:nonzero;"/><path d="M344.063,229.175c-0,36.85 29.883,66.729 66.724,66.729c36.863,0 66.734,-29.879 66.734,-66.729c0,-36.858 -29.871,-66.729 -66.734,-66.729c-36.841,-0 -66.724,29.871 -66.724,66.729Z" style="fill:#e39332;fill-rule:nonzero;"/><path d="M370.758,229.175c0,22.112 17.925,40.033 40.029,40.033c22.121,0 40.046,-17.921 40.046,-40.033c0,-22.117 -17.925,-40.037 -40.046,-40.037c-22.104,-0 -40.029,17.92 -40.029,40.037Z" style="fill:#8a603c;fill-rule:nonzero;"/><path d="M456.075,334.354c-19.729,-99.521 -49.754,-126.375 -135.254,-126.375c-0.383,0 -0.758,0.013 -1.133,0.013c-0.38,-0 -0.755,-0.013 -1.134,-0.013c-85.496,0 -115.529,26.854 -135.258,126.375c-29.584,39.484 -25.208,159.833 129.592,159.833c2.3,0 4.554,-0.02 6.8,-0.054c2.237,0.034 4.495,0.054 6.799,0.054c154.805,0 159.176,-120.349 129.588,-159.833Z" style="fill:#e39332;fill-rule:nonzero;"/><clipPath id="_clip1"><path d="M456.075,329.504c-19.729,-102.537 -49.754,-130.204 -135.254,-130.204c-0.383,-0 -0.758,0.012 -1.133,0.017c-0.38,-0.005 -0.755,-0.017 -1.134,-0.017c-85.496,-0 -115.529,27.667 -135.258,130.204c-29.584,40.688 -25.208,164.683 129.592,164.683c2.3,0 4.554,-0.02 6.8,-0.054c2.237,0.034 4.495,0.054 6.799,0.054c154.805,0 159.176,-123.995 129.588,-164.683Z"/></clipPath><g clip-path="url(#_clip1)"><path d="M493.671,529.146c-0,73.704 -71.854,133.454 -172.521,133.454c-100.671,-0 -172.521,-59.75 -172.521,-133.454c0,-73.709 71.85,-157.871 172.521,-157.871c100.667,-0 172.521,84.162 172.521,157.871Z" style="fill:#f4dbbd;fill-rule:nonzero;"/></g><path d="M274.454,320.546c0,14.516 -11.762,26.275 -26.271,26.275c-14.52,-0 -26.287,-11.759 -26.287,-26.275c-0,-14.517 11.767,-26.288 26.287,-26.288c14.509,0 26.271,11.771 26.271,26.288Z" style="fill:#8a603c;fill-rule:nonzero;"/><path d="M261.484,320.767c-0,7.346 -5.959,13.3 -13.301,13.3c-7.345,-0 -13.308,-5.954 -13.308,-13.3c-0,-7.346 5.963,-13.304 13.308,-13.304c7.342,-0 13.301,5.958 13.301,13.304Z" style="fill:#3b3e43;fill-rule:nonzero;"/><path d="M251.167,310.317c-0,3.858 -3.121,6.983 -6.979,6.983c-3.855,-0 -6.984,-3.125 -6.984,-6.983c0,-3.863 3.129,-6.988 6.984,-6.988c3.858,0 6.979,3.125 6.979,6.988Z" style="fill:#fff;fill-rule:nonzero;"/><path d="M354.842,381.683c-0,12.175 -14.209,22.446 -31.734,22.446c-17.533,0 -31.741,-10.271 -31.741,-22.446c-0,-12.171 14.208,-22.037 31.741,-22.037c17.525,-0 31.734,9.866 31.734,22.037Z" style="fill:#3b3e43;fill-rule:nonzero;"/><path d="M290.021,446.254c-8.708,0 -18.354,-4.292 -28.787,-12.833c-1.392,-1.138 -1.597,-3.188 -0.459,-4.579c1.138,-1.396 3.188,-1.6 4.583,-0.459c12.2,9.988 22.721,13.409 31.25,10.159c16.984,-6.459 22.013,-36.855 22.059,-37.163c0.283,-1.775 1.954,-2.996 3.733,-2.7c1.775,0.279 2.984,1.946 2.7,3.725c-0.229,1.4 -5.708,34.442 -26.183,42.229c-2.846,1.08 -5.817,1.621 -8.896,1.621Z" style="fill:#3b3e43;fill-rule:nonzero;"/><path d="M350.45,449.108c-2.692,0 -5.275,-0.496 -7.729,-1.479c-19.467,-7.792 -23.117,-43.896 -23.267,-45.429c-0.171,-1.788 1.138,-3.379 2.934,-3.55c1.787,-0.179 3.387,1.146 3.55,2.929c0.895,9.354 6.1,34.767 19.195,40.008c7.2,2.875 16.359,-0.454 27.242,-9.887c1.359,-1.183 3.417,-1.037 4.592,0.321c1.179,1.358 1.029,3.417 -0.321,4.591c-9.592,8.313 -18.363,12.496 -26.196,12.496Z" style="fill:#3b3e43;fill-rule:nonzero;"/><path d="M343.775,375.083c-0.75,2.921 -5.071,4.338 -9.667,3.167c-4.608,-1.167 -7.733,-4.479 -6.995,-7.4c0.754,-2.921 5.075,-4.342 9.675,-3.167c4.604,1.171 7.733,4.479 6.987,7.4Z" style="fill:#fff;fill-rule:nonzero;"/><path d="M364.908,320.546c0,14.516 11.763,26.275 26.28,26.275c14.512,-0 26.283,-11.759 26.283,-26.275c-0,-14.517 -11.771,-26.288 -26.283,-26.288c-14.517,0 -26.28,11.771 -26.28,26.288Z" style="fill:#8a603c;fill-rule:nonzero;"/><path d="M377.887,320.767c0,7.346 5.959,13.3 13.301,13.3c7.349,-0 13.304,-5.954 13.304,-13.3c-0,-7.346 -5.955,-13.304 -13.304,-13.304c-7.342,-0 -13.301,5.958 -13.301,13.304Z" style="fill:#3b3e43;fill-rule:nonzero;"/><path d="M388.196,310.317c-0,3.858 3.125,6.983 6.987,6.983c3.85,-0 6.988,-3.125 6.988,-6.983c-0,-3.863 -3.138,-6.988 -6.988,-6.988c-3.862,0 -6.987,3.125 -6.987,6.988Z" style="fill:#fff;fill-rule:nonzero;"/><path d="M257.996,391.225c-0,-0 -35.604,-22.496 -133.592,-24.354" style="fill:none;stroke:#3d342f;stroke-width:8.33px;"/><path d="M253.458,401.779c0,0 -41.904,-14.246 -138.416,3.975" style="fill:none;stroke:#3d342f;stroke-width:8.33px;"/><path d="M253.071,414.267c-0,-0 -45.233,-6.138 -135.188,28.916" style="fill:none;stroke:#3d342f;stroke-width:8.33px;"/><path d="M384.667,394.479c-0,0 35.604,-22.496 133.595,-24.354" style="fill:none;stroke:#3d342f;stroke-width:8.33px;"/><path d="M389.208,405.029c0,0 41.909,-14.241 138.417,3.983" style="fill:none;stroke:#3d342f;stroke-width:8.33px;"/><path d="M389.596,417.525c-0,-0 45.233,-6.142 135.183,28.917" style="fill:none;stroke:#3d342f;stroke-width:8.33px;"/></svg>