<?xml version="1.0" encoding="UTF-8" standalone="no"?><!DOCTYPE svg PUBLIC "-//W3C//DTD SVG 1.1//EN" "http://www.w3.org/Graphics/SVG/1.1/DTD/svg11.dtd"><svg width="100%" height="100%" viewBox="0 0 645 645" version="1.1" xmlns="http://www.w3.org/2000/svg" xmlns:xlink="http://www.w3.org/1999/xlink" xml:space="preserve" xmlns:serif="http://www.serif.com/" style="fill-rule:evenodd;clip-rule:evenodd;stroke-linejoin:round;stroke-miterlimit:2;"><path d="M644.483,322.242c0,177.966 -144.275,322.241 -322.237,322.241c-177.975,0 -322.246,-144.275 -322.246,-322.241c-0,-177.971 144.271,-322.242 322.246,-322.242c177.962,0 322.237,144.271 322.237,322.242Z" style="fill:#61a5a2;fill-rule:nonzero;"/><path d="M380.158,272.742c29.85,-121.046 128.288,-163.417 128.288,-163.417c-0,-0 70.371,183.7 -64.142,227.508l-64.146,-64.091Z" style="fill:#d56027;fill-rule:nonzero;"/><path d="M394.521,283.879c38.446,-114.979 100.029,-135.033 100.029,-135.033c0,-0 53.221,109.791 -63.696,176.762l-36.333,-41.729Z" style="fill:#f4dbbd;fill-rule:nonzero;"/><path d="M264.338,272.742c-29.859,-121.046 -128.3,-163.417 -128.3,-163.417c-0,-0 -70.363,183.7 64.149,227.508l64.151,-64.091Z" style="fill:#d56027;fill-rule:nonzero;"/><path d="M249.975,283.879c-38.458,-114.979 -100.037,-135.033 -100.037,-135.033c-0,-0 -53.217,109.791 63.7,176.762l36.337,-41.729Z" style="fill:#f4dbbd;fill-rule:nonzero;"/><path d="M322.175,241.412l0,0.005c0.05,-0 0.1,-0.005 0.146,-0.005l-0.146,0Z" style="fill:#ea632f;fill-rule:nonzero;"/><path d="M322.467,241.412l-0.146,0c0.042,0 0.091,0.005 0.146,0.005l-0,-0.005Z" style="fill:#a94824;fill-rule:nonzero;"/><path d="M470.896,389.504c-0,-81.692 -66.15,-147.933 -147.817,-148.079l0,-0.013c-0.046,0 -0.092,0.005 -0.137,0.005c-0.05,-0 -0.092,-0.005 -0.146,-0.005l-0,0.013l-0.408,-0l-0,-0.013c-0.055,0 -0.101,0.005 -0.142,0.005c-0.05,-0 -0.1,-0.005 -0.146,-0.005l0,0.013c-81.662,0.146 -147.817,66.387 -147.817,148.079c0,1.933 -35.587,42.071 -11.275,90.017c13.446,26.508 87.629,54.837 158.313,55.612c74.937,0.829 146.591,-27.504 160.85,-55.612c24.308,-47.946 -11.275,-88.084 -11.275,-90.017Z" style="fill:#ec692a;fill-rule:nonzero;"/><path d="M359.638,366.008c-0,12.534 10.175,22.704 22.716,22.704c12.529,0 22.708,-10.17 22.708,-22.704c0,-12.541 -10.179,-22.716 -22.708,-22.716c-12.541,-0 -22.716,10.175 -22.716,22.716Z" style="fill:#3b3e43;fill-rule:nonzero;"/><path d="M377.229,348.167c0,6.587 5.35,11.92 11.934,11.92c6.583,0 11.92,-5.333 11.92,-11.92c0,-6.592 -5.337,-11.921 -11.92,-11.921c-6.584,-0 -11.934,5.329 -11.934,11.921Z" style="fill:#fff;fill-rule:nonzero;"/><path d="M292.483,366.008c0,12.534 -10.162,22.704 -22.7,22.704c-12.537,0 -22.704,-10.17 -22.704,-22.704c0,-12.541 10.167,-22.716 22.704,-22.716c12.538,-0 22.7,10.175 22.7,22.716Z" style="fill:#3b3e43;fill-rule:nonzero;"/><path d="M274.896,348.167c-0,6.587 -5.342,11.92 -11.925,11.92c-6.592,0 -11.921,-5.333 -11.921,-11.92c-0,-6.592 5.329,-11.921 11.921,-11.921c6.583,-0 11.925,5.329 11.925,11.921Z" style="fill:#fff;fill-rule:nonzero;"/><path d="M361.004,466.008c0,13.967 -16.304,31.359 -36.408,31.359c-20.117,-0 -36.408,-17.392 -36.408,-31.359c-0,-13.962 16.291,-25.287 36.408,-25.287c20.104,-0 36.408,11.325 36.408,25.287Z" style="fill:#3b3e43;fill-rule:nonzero;"/><path d="M348.313,458.446c-0.846,3.354 -5.821,4.971 -11.096,3.633c-5.275,-1.337 -8.871,-5.142 -8.025,-8.5c0.854,-3.354 5.829,-4.971 11.108,-3.633c5.275,1.346 8.862,5.141 8.013,8.5Z" style="fill:#fff;fill-rule:nonzero;"/><g><clipPath id="_clip1"><path d="M470.896,389.504c-0,-81.692 -66.15,-147.933 -147.817,-148.079l0,-0.013c-0.046,0 -0.092,0.005 -0.137,0.005c-0.05,-0 -0.092,-0.005 -0.146,-0.005l-0,0.013l-0.408,-0l-0,-0.013c-0.055,0 -0.101,0.005 -0.142,0.005c-0.05,-0 -0.1,-0.005 -0.146,-0.005l0,0.013c-81.662,0.146 -147.817,66.387 -147.817,148.079c0,1.933 -35.587,42.071 -11.275,90.017c13.446,26.508 87.629,54.837 158.313,55.612c74.937,0.829 146.591,-27.504 160.85,-55.612c24.308,-47.946 -11.275,-88.084 -11.275,-90.017Z"/></clipPath><g clip-path="url(#_clip1)"><path d="M293.371,548.975c-11.875,15.237 -58,-0.813 -103.021,-35.875c-45.025,-35.054 -71.908,-75.842 -60.033,-91.092c11.871,-15.246 58.008,0.817 103.025,35.867c45.033,35.062 71.904,75.842 60.029,91.1Z" style="fill:#f4dbbd;fill-rule:nonzero;"/><path d="M352.571,542.854c11.812,14.408 58.942,-1.512 105.262,-35.567c46.321,-34.041 74.3,-73.325 62.492,-87.741c-11.813,-14.404 -58.95,1.521 -105.271,35.562c-46.312,34.054 -74.291,73.329 -62.483,87.746Z" style="fill:#f4dbbd;fill-rule:nonzero;"/></g></g></svg>