<?xml version="1.0" encoding="UTF-8" standalone="no"?><!DOCTYPE svg PUBLIC "-//W3C//DTD SVG 1.1//EN" "http://www.w3.org/Graphics/SVG/1.1/DTD/svg11.dtd"><svg width="100%" height="100%" viewBox="0 0 645 645" version="1.1" xmlns="http://www.w3.org/2000/svg" xmlns:xlink="http://www.w3.org/1999/xlink" xml:space="preserve" xmlns:serif="http://www.serif.com/" style="fill-rule:evenodd;clip-rule:evenodd;stroke-linejoin:round;stroke-miterlimit:2;"><path d="M644.479,322.242c0,177.966 -144.271,322.241 -322.237,322.241c-177.971,0 -322.242,-144.275 -322.242,-322.241c0,-177.971 144.271,-322.242 322.242,-322.242c177.966,0 322.237,144.271 322.237,322.242Z" style="fill:#d8d424;fill-rule:nonzero;"/><path d="M219.729,223.908c-5.546,-5.858 -12.941,-12.471 -19.241,-16.067l-2.08,-1.158c-0.35,1.45 -1.2,4.338 -1.833,7.709c-1.108,7.02 -0.992,14.245 -0.817,24.12c0.205,9.767 0.334,21.671 -0.608,33.863c-0.904,12.229 -2.771,24.662 -5.35,36.658c-5.187,24.071 -12.912,46.55 -21.513,68.008l-0.512,1.271c-10.875,27.1 -41.658,40.255 -68.75,29.392c-27.096,-10.867 -40.254,-41.646 -29.387,-68.754c1.845,-4.608 4.437,-9.004 7.325,-12.763c11.57,-14.887 22.016,-29.991 30.291,-45.304c4.146,-7.679 7.709,-15.371 10.775,-23.55c3.109,-8.216 5.579,-16.996 8.4,-27.854c2.804,-10.717 6.488,-24.137 12.779,-36.604c3.063,-6.325 6.646,-12.95 12.355,-19.963c2.87,-3.483 6.354,-7.083 10.858,-10.433c4.471,-3.313 10.037,-6.358 16.312,-8.008c6.23,-1.73 12.779,-1.946 18.405,-1.1c5.683,0.833 10.462,2.571 14.562,4.516c8.125,3.98 13.783,8.742 18.692,13.454c4.846,4.755 8.854,9.596 12.483,14.517c3.688,5.05 6.692,9.654 10.054,15.5c5.529,9.621 2.221,21.892 -7.391,27.425c-8.213,4.717 -18.367,3 -24.6,-3.596l-1.209,-1.279Z" style="fill:#7b5736;fill-rule:nonzero;"/><path d="M424.754,223.908c5.546,-5.858 12.942,-12.471 19.238,-16.067l2.079,-1.158c0.354,1.45 1.2,4.338 1.833,7.709c1.117,7.02 1,14.245 0.817,24.12c-0.213,9.767 -0.333,21.671 0.608,33.863c0.904,12.229 2.771,24.662 5.35,36.658c5.184,24.071 12.913,46.55 21.513,68.008l0.516,1.271c10.871,27.1 41.654,40.255 68.742,29.392c27.104,-10.867 40.258,-41.646 29.392,-68.754c-1.85,-4.608 -4.438,-9.004 -7.325,-12.763c-11.571,-14.887 -22.009,-29.991 -30.292,-45.304c-4.138,-7.679 -7.708,-15.371 -10.779,-23.55c-3.096,-8.216 -5.571,-16.996 -8.404,-27.854c-2.792,-10.717 -6.479,-24.137 -12.771,-36.604c-3.063,-6.325 -6.633,-12.95 -12.354,-19.963c-2.867,-3.483 -6.35,-7.083 -10.846,-10.433c-4.483,-3.313 -10.05,-6.358 -16.325,-8.008c-6.229,-1.73 -12.779,-1.946 -18.404,-1.1c-5.684,0.833 -10.459,2.571 -14.554,4.516c-8.13,3.98 -13.788,8.742 -18.684,13.454c-4.85,4.755 -8.866,9.596 -12.496,14.517c-3.695,5.05 -6.695,9.654 -10.058,15.5c-5.529,9.621 -2.221,21.892 7.396,27.425c8.208,4.717 18.371,3 24.596,-3.596l1.212,-1.279Z" style="fill:#7b5736;fill-rule:nonzero;"/><path d="M324.642,183.779l-0,0.004c0.05,0 0.1,-0.004 0.141,-0.004l-0.141,0Z" style="fill:#ea632f;fill-rule:nonzero;"/><path d="M324.929,183.779l-0.146,0c0.046,0 0.096,0.004 0.146,0.004l0,-0.004Z" style="fill:#a94824;fill-rule:nonzero;"/><path d="M470.308,328.829c0,-80.017 -64.795,-144.896 -144.775,-145.042l0,-0.008c-0.05,0 -0.096,0.004 -0.145,0.004c-0.046,0 -0.088,-0.004 -0.138,-0.004l0,0.008l-0.404,0l-0,-0.008c-0.046,0 -0.092,0.004 -0.138,0.004c-0.05,0 -0.091,-0.004 -0.141,-0.004l-0,0.008c-79.979,0.146 -144.775,65.025 -144.775,145.042c-0,1.883 -34.854,41.2 -11.038,88.154c13.163,25.971 85.821,73.833 155.05,74.596c73.4,0.804 143.584,-47.054 157.542,-74.596c23.812,-46.954 -11.038,-86.271 -11.038,-88.154Z" style="fill:#8a603c;fill-rule:nonzero;"/><path d="M361.337,305.812c0,12.275 9.963,22.238 22.238,22.238c12.283,-0 22.246,-9.963 22.246,-22.238c-0,-12.287 -9.963,-22.25 -22.246,-22.25c-12.275,0 -22.238,9.963 -22.238,22.25Z" style="fill:#3b3e43;fill-rule:nonzero;"/><path d="M378.567,288.337c-0,6.455 5.237,11.675 11.687,11.675c6.442,0 11.675,-5.22 11.675,-11.675c0,-6.45 -5.233,-11.679 -11.675,-11.679c-6.45,0 -11.687,5.229 -11.687,11.679Z" style="fill:#fff;fill-rule:nonzero;"/><path d="M295.558,305.812c0,12.275 -9.945,22.238 -22.229,22.238c-12.279,-0 -22.241,-9.963 -22.241,-22.238c-0,-12.287 9.962,-22.25 22.241,-22.25c12.284,0 22.229,9.963 22.229,22.25Z" style="fill:#3b3e43;fill-rule:nonzero;"/><path d="M278.333,288.337c0,6.455 -5.229,11.675 -11.679,11.675c-6.454,0 -11.675,-5.22 -11.675,-11.675c0,-6.45 5.221,-11.679 11.675,-11.679c6.45,0 11.679,5.229 11.679,11.679Z" style="fill:#fff;fill-rule:nonzero;"/><clipPath id="_clip1"><path d="M470.308,328.829c0,-80.017 -64.795,-144.896 -144.775,-145.042l0,-0.008c-0.05,0 -0.096,0.004 -0.145,0.004c-0.046,0 -0.088,-0.004 -0.138,-0.004l0,0.008l-0.404,0l-0,-0.008c-0.046,0 -0.092,0.004 -0.138,0.004c-0.05,0 -0.091,-0.004 -0.141,-0.004l-0,0.008c-79.979,0.146 -144.775,65.025 -144.775,145.042c-0,1.883 -34.854,41.2 -11.038,88.154c13.163,25.971 85.821,73.833 155.05,74.596c73.4,0.804 143.584,-47.054 157.542,-74.596c23.812,-46.954 -11.038,-86.271 -11.038,-88.154Z"/></clipPath><g clip-path="url(#_clip1)"><path d="M431.921,428.925c-0,33.787 -48.408,81.287 -108.117,81.287c-59.708,0 -108.117,-47.5 -108.117,-81.287c0,-33.788 48.409,-61.179 108.117,-61.179c59.709,-0 108.117,27.391 108.117,61.179Z" style="fill:#f4dbbd;fill-rule:nonzero;"/></g><path d="M355.233,367.975c0,11.271 -13.15,25.296 -29.375,25.296c-16.233,-0 -29.383,-14.025 -29.383,-25.296c0,-11.267 13.15,-20.404 29.383,-20.404c16.225,-0 29.375,9.137 29.375,20.404Z" style="fill:#3b3e43;fill-rule:nonzero;"/><path d="M295.229,427.746c-8.058,-0 -16.983,-3.975 -26.65,-11.879c-1.287,-1.05 -1.479,-2.95 -0.417,-4.242c1.055,-1.283 2.955,-1.471 4.234,-0.417c11.304,9.238 21.037,12.409 28.925,9.413c15.725,-5.988 20.387,-34.138 20.437,-34.413c0.25,-1.65 1.796,-2.762 3.446,-2.504c1.642,0.267 2.763,1.813 2.5,3.45c-0.208,1.3 -5.287,31.883 -24.237,39.092c-2.638,1 -5.384,1.5 -8.238,1.5Z" style="fill:#3b3e43;fill-rule:nonzero;"/><path d="M351.167,430.387c-2.484,0 -4.871,-0.45 -7.154,-1.362c-18.017,-7.213 -21.392,-40.638 -21.534,-42.058c-0.162,-1.659 1.059,-3.13 2.713,-3.288c1.654,-0.162 3.129,1.058 3.287,2.721c0.838,8.65 5.646,32.175 17.779,37.025c6.659,2.667 15.134,-0.417 25.209,-9.154c1.254,-1.092 3.158,-0.95 4.254,0.304c1.083,1.258 0.954,3.162 -0.304,4.254c-8.875,7.692 -17.005,11.558 -24.25,11.558Z" style="fill:#3b3e43;fill-rule:nonzero;"/><path d="M344.992,361.871c-0.68,2.704 -4.696,4.008 -8.954,2.929c-4.263,-1.083 -7.155,-4.15 -6.471,-6.854c0.691,-2.704 4.7,-4.013 8.962,-2.934c4.254,1.088 7.15,4.15 6.463,6.859Z" style="fill:#fff;fill-rule:nonzero;"/><path d="M251.333,390.992c-0.633,-0 -1.271,-0.234 -1.762,-0.713c-0.338,-0.333 -35.446,-33.55 -134.929,-48.75c-1.375,-0.212 -2.317,-1.492 -2.104,-2.867c0.208,-1.375 1.52,-2.295 2.866,-2.104c101.338,15.483 136.259,48.717 137.688,50.121c0.987,0.975 1.008,2.563 0.037,3.558c-0.487,0.5 -1.141,0.755 -1.796,0.755Z" style="fill:#3d342f;fill-rule:nonzero;"/><path d="M245.475,404.05c-0.425,-0 -0.85,-0.104 -1.246,-0.329c-0.412,-0.234 -42.8,-23.513 -142.871,-13.084c-1.341,0.13 -2.616,-0.854 -2.758,-2.241c-0.146,-1.379 0.858,-2.621 2.242,-2.763c101.983,-10.629 144.137,12.725 145.887,13.721c1.2,0.692 1.617,2.225 0.929,3.425c-0.462,0.817 -1.316,1.271 -2.183,1.271Z" style="fill:#3d342f;fill-rule:nonzero;"/><path d="M100.029,439.504c-1.05,-0 -2.029,-0.654 -2.379,-1.7c-0.45,-1.312 0.246,-2.746 1.558,-3.192c96.98,-33.22 143.313,-19.941 145.246,-19.354c1.325,0.4 2.079,1.8 1.679,3.129c-0.404,1.33 -1.779,2.084 -3.133,1.688c-0.454,-0.142 -46.963,-13.313 -142.158,19.296c-0.271,0.087 -0.55,0.133 -0.813,0.133Z" style="fill:#3d342f;fill-rule:nonzero;"/><path d="M395.467,396.021c-0.654,-0 -1.309,-0.25 -1.8,-0.754c-0.963,-0.996 -0.95,-2.584 0.037,-3.555c1.438,-1.408 36.35,-34.641 137.692,-50.125c1.375,-0.2 2.65,0.734 2.867,2.105c0.208,1.375 -0.734,2.654 -2.109,2.862c-99.483,15.204 -134.587,48.421 -134.929,48.75c-0.492,0.479 -1.129,0.717 -1.758,0.717Z" style="fill:#3d342f;fill-rule:nonzero;"/><path d="M401.317,409.079c-0.867,0 -1.717,-0.45 -2.179,-1.267c-0.692,-1.2 -0.271,-2.737 0.933,-3.429c1.75,-0.991 43.929,-24.35 145.883,-13.716c1.384,0.141 2.388,1.379 2.246,2.758c-0.146,1.383 -1.387,2.375 -2.762,2.237c-100.371,-10.441 -142.459,12.85 -142.867,13.084c-0.396,0.229 -0.825,0.333 -1.254,0.333Z" style="fill:#3d342f;fill-rule:nonzero;"/><path d="M546.775,444.533c-0.271,0 -0.542,-0.046 -0.821,-0.133c-95.183,-32.608 -141.7,-19.438 -142.158,-19.296c-1.346,0.4 -2.733,-0.363 -3.129,-1.692c-0.4,-1.325 0.35,-2.725 1.679,-3.129c1.929,-0.579 48.254,-13.862 145.242,19.359c1.312,0.441 2.016,1.874 1.562,3.191c-0.354,1.046 -1.333,1.7 -2.375,1.7Z" style="fill:#3d342f;fill-rule:nonzero;"/></svg>