<?xml version="1.0" encoding="UTF-8" standalone="no"?><!DOCTYPE svg PUBLIC "-//W3C//DTD SVG 1.1//EN" "http://www.w3.org/Graphics/SVG/1.1/DTD/svg11.dtd"><svg width="100%" height="100%" viewBox="0 0 645 645" version="1.1" xmlns="http://www.w3.org/2000/svg" xmlns:xlink="http://www.w3.org/1999/xlink" xml:space="preserve" xmlns:serif="http://www.serif.com/" style="fill-rule:evenodd;clip-rule:evenodd;stroke-linejoin:round;stroke-miterlimit:2;"><path d="M644.479,322.242c0,177.966 -144.271,322.241 -322.246,322.241c-177.962,0 -322.233,-144.275 -322.233,-322.241c-0,-177.971 144.271,-322.242 322.233,-322.242c177.975,0 322.246,144.271 322.246,322.242Z" style="fill:#f1592b;fill-rule:nonzero;"/><path d="M263.658,208.496c2.763,34.571 -105.687,155.262 -105.687,155.262c-0,0 1.612,-2.562 1.612,-144.483c1.8,-57.963 47.93,-119.471 53.909,-121.175c5.983,-1.708 47.404,75.821 50.166,110.396Z" style="fill:#825d42;fill-rule:nonzero;"/><path d="M382.675,204.225c-2.763,34.571 105.688,155.262 105.688,155.262c-0,0 -1.613,-2.562 -1.613,-144.483c-1.804,-57.962 -47.933,-119.471 -53.912,-121.179c-5.976,-1.704 -47.4,75.829 -50.163,110.4Z" style="fill:#825d42;fill-rule:nonzero;"/><path d="M489.367,383.9c7.72,112.254 -67.446,166.779 -172.088,166.779c-104.642,0 -180.237,-62.208 -159.7,-203.721c14.571,-100.412 60.096,-164.866 172.584,-164.866c138.741,-0 152.658,106.72 159.204,201.808Z" style="fill:#966b4e;fill-rule:nonzero;"/><clipPath id="_clip1"><path d="M489.367,383.9c10.287,108.412 -67.446,166.779 -172.088,166.779c-104.642,0 -177.671,-62.208 -159.7,-203.721c12.775,-100.65 62.658,-157.175 175.146,-157.175c138.737,0 147.638,99.229 156.642,194.117Z"/></clipPath><g clip-path="url(#_clip1)"><path d="M326.037,386.604c-41.645,0 -112.545,63.854 -127.92,171.908c-14.042,98.717 258.345,84.688 246.862,-11.1c-9.004,-75.158 -77.3,-160.808 -118.942,-160.808Z" style="fill:#f4dbbd;fill-rule:nonzero;"/></g><path d="M373.937,327.125c0,24.237 19.646,43.883 43.892,43.883c24.234,0 43.884,-19.646 43.884,-43.883c-0,-24.238 -19.65,-43.888 -43.884,-43.888c-24.246,0 -43.892,19.65 -43.892,43.888Z" style="fill:#f4dbbd;fill-rule:nonzero;"/><path d="M389.942,327.483c-0,14.421 11.691,26.104 26.112,26.104c14.409,0 26.108,-11.683 26.108,-26.104c0,-14.421 -11.699,-26.108 -26.108,-26.108c-14.421,-0 -26.112,11.687 -26.112,26.108Z" style="fill:#3d342f;fill-rule:nonzero;"/><path d="M412.321,305.933c-0,6.867 5.566,12.429 12.425,12.429c6.875,0 12.442,-5.562 12.442,-12.429c-0,-6.866 -5.567,-12.433 -12.442,-12.433c-6.859,-0 -12.425,5.567 -12.425,12.433Z" style="fill:#fff;fill-rule:nonzero;"/><path d="M277.471,330.967c-0,24.241 -19.642,43.887 -43.879,43.887c-24.238,0 -43.888,-19.646 -43.888,-43.887c0,-24.238 19.65,-43.884 43.888,-43.884c24.237,0 43.879,19.646 43.879,43.884Z" style="fill:#f4dbbd;fill-rule:nonzero;"/><path d="M255.067,333.887c-0,14.421 -11.684,26.105 -26.105,26.105c-14.424,-0 -26.116,-11.684 -26.116,-26.105c-0,-14.42 11.692,-26.108 26.116,-26.108c14.421,0 26.105,11.688 26.105,26.108Z" style="fill:#3d342f;fill-rule:nonzero;"/><path d="M232.692,312.337c-0,6.867 -5.571,12.434 -12.438,12.434c-6.866,-0 -12.429,-5.567 -12.429,-12.434c-0,-6.866 5.563,-12.433 12.429,-12.433c6.867,-0 12.438,5.567 12.438,12.433Z" style="fill:#fff;fill-rule:nonzero;"/><path d="M374.508,428.675c0,9.879 -38.1,25.737 -51.354,25.737c-13.254,0 -53.008,-15.37 -53.008,-25.254c-0,-9.875 22.25,-17.883 49.696,-17.883c27.437,-0 54.666,7.521 54.666,17.4Z" style="fill:#3d342f;fill-rule:nonzero;"/><path d="M323.921,525.696c-28.792,-0 -49.954,-17.625 -50.267,-17.896c-1.612,-1.375 -1.804,-3.8 -0.429,-5.413c1.379,-1.616 3.8,-1.812 5.412,-0.437c1.713,1.45 42.359,35.087 86.538,1.083c1.679,-1.291 4.1,-0.983 5.392,0.7c1.3,1.683 0.975,4.1 -0.705,5.396c-16.104,12.388 -31.933,16.567 -45.941,16.567Z" style="fill:#3d342f;fill-rule:nonzero;"/><rect x="318.633" y="444.054" width="9.625" height="80.717" style="fill:#3d342f;fill-rule:nonzero;"/></svg>