<?xml version="1.0" encoding="UTF-8" standalone="no"?><!DOCTYPE svg PUBLIC "-//W3C//DTD SVG 1.1//EN" "http://www.w3.org/Graphics/SVG/1.1/DTD/svg11.dtd"><svg width="100%" height="100%" viewBox="0 0 645 645" version="1.1" xmlns="http://www.w3.org/2000/svg" xmlns:xlink="http://www.w3.org/1999/xlink" xml:space="preserve" xmlns:serif="http://www.serif.com/" style="fill-rule:evenodd;clip-rule:evenodd;stroke-linejoin:round;stroke-miterlimit:2;"><path d="M644.483,322.242c0,177.966 -144.27,322.241 -322.237,322.241c-177.975,0 -322.246,-144.275 -322.246,-322.241c-0,-177.971 144.271,-322.242 322.246,-322.242c177.967,0 322.237,144.271 322.237,322.242Z" style="fill:#185788;fill-rule:nonzero;"/><path d="M514.208,339.787c0,94.625 -85.733,171.334 -191.491,171.334c-105.759,-0 -191.5,-76.709 -191.5,-171.334c-0,-94.62 85.741,-171.333 191.5,-171.333c105.758,-0 191.491,76.713 191.491,171.333Z" style="fill:#f8aa9c;fill-rule:nonzero;"/><path d="M423.5,413.025c0,35.625 -44.221,64.504 -98.767,64.504c-54.554,0 -98.766,-28.879 -98.766,-64.504c-0,-35.621 44.212,-64.5 98.766,-64.5c54.546,-0 98.767,28.879 98.767,64.5Z" style="fill:#d59488;fill-rule:nonzero;"/><path d="M357.121,300.829c0,19.575 15.867,35.446 35.442,35.446c19.579,-0 35.446,-15.871 35.446,-35.446c-0,-19.575 -15.867,-35.446 -35.446,-35.446c-19.575,0 -35.442,15.871 -35.442,35.446Z" style="fill:#d59488;fill-rule:nonzero;"/><path d="M370.042,301.117c-0,11.645 9.437,21.083 21.083,21.083c11.646,-0 21.088,-9.438 21.088,-21.083c-0,-11.646 -9.442,-21.088 -21.088,-21.088c-11.646,0 -21.083,9.442 -21.083,21.088Z" style="fill:#3d342f;fill-rule:nonzero;"/><path d="M388.117,283.712c-0,5.546 4.495,10.042 10.037,10.042c5.55,0 10.046,-4.496 10.046,-10.042c0,-5.55 -4.496,-10.045 -10.046,-10.045c-5.542,-0 -10.037,4.495 -10.037,10.045Z" style="fill:#fff;fill-rule:nonzero;"/><path d="M300.938,300.829c-0,19.575 -15.871,35.446 -35.455,35.446c-19.57,-0 -35.437,-15.871 -35.437,-35.446c-0,-19.575 15.867,-35.446 35.437,-35.446c19.584,0 35.455,15.871 35.455,35.446Z" style="fill:#d59488;fill-rule:nonzero;"/><path d="M288.008,301.117c0,11.645 -9.437,21.083 -21.079,21.083c-11.65,-0 -21.091,-9.438 -21.091,-21.083c-0,-11.646 9.441,-21.088 21.091,-21.088c11.642,0 21.079,9.442 21.079,21.088Z" style="fill:#3d342f;fill-rule:nonzero;"/><path d="M269.929,283.712c0,5.546 -4.491,10.042 -10.033,10.042c-5.55,0 -10.042,-4.496 -10.042,-10.042c0,-5.55 4.492,-10.045 10.042,-10.045c5.542,-0 10.033,4.495 10.033,10.045Z" style="fill:#fff;fill-rule:nonzero;"/><path d="M307.579,414.367c0,9.833 -7.971,17.808 -17.804,17.808c-9.829,-0 -17.804,-7.975 -17.804,-17.808c-0,-9.834 7.975,-17.805 17.804,-17.805c9.833,0 17.804,7.971 17.804,17.805Z" style="fill:#3d342f;fill-rule:nonzero;"/><path d="M381.05,415.262c0,9.834 -7.975,17.809 -17.804,17.809c-9.842,-0 -17.813,-7.975 -17.813,-17.809c0,-9.833 7.971,-17.804 17.813,-17.804c9.829,0 17.804,7.971 17.804,17.804Z" style="fill:#3d342f;fill-rule:nonzero;"/><path d="M512.575,248.062c-25.254,22.68 -63.437,21.342 -85.279,-2.979c-21.842,-24.325 -19.079,-62.429 6.167,-85.108c25.262,-22.679 115.608,-29.838 119.65,-25.35c4.033,4.496 -15.284,90.758 -40.538,113.437Z" style="fill:#f8aa9c;fill-rule:nonzero;"/><path d="M503.846,231.529c-17.517,15.733 -44,14.804 -59.158,-2.067c-15.159,-16.87 -13.242,-43.308 4.287,-59.037c17.517,-15.733 80.192,-20.7 82.992,-17.584c2.8,3.113 -10.604,62.955 -28.121,78.688Z" style="fill:#d59488;fill-rule:nonzero;"/><path d="M131.904,248.062c25.254,22.68 63.438,21.342 85.279,-2.979c21.846,-24.325 19.075,-62.429 -6.175,-85.108c-25.254,-22.679 -115.604,-29.838 -119.637,-25.35c-4.038,4.496 15.279,90.758 40.533,113.437Z" style="fill:#f8aa9c;fill-rule:nonzero;"/><path d="M140.633,231.529c17.517,15.733 44.004,14.804 59.15,-2.067c15.159,-16.87 13.242,-43.308 -4.27,-59.037c-17.525,-15.733 -80.209,-20.7 -83.001,-17.584c-2.804,3.113 10.6,62.955 28.121,78.688Z" style="fill:#d59488;fill-rule:nonzero;"/></svg>