<?xml version="1.0" encoding="UTF-8" standalone="no"?><!DOCTYPE svg PUBLIC "-//W3C//DTD SVG 1.1//EN" "http://www.w3.org/Graphics/SVG/1.1/DTD/svg11.dtd"><svg width="100%" height="100%" viewBox="0 0 645 645" version="1.1" xmlns="http://www.w3.org/2000/svg" xmlns:xlink="http://www.w3.org/1999/xlink" xml:space="preserve" xmlns:serif="http://www.serif.com/" style="fill-rule:evenodd;clip-rule:evenodd;stroke-linejoin:round;stroke-miterlimit:2;"><path d="M644.483,322.246c0,177.966 -144.275,322.237 -322.237,322.237c-177.975,0 -322.246,-144.271 -322.246,-322.237c-0,-177.975 144.271,-322.246 322.246,-322.246c177.962,0 322.237,144.271 322.237,322.246Z" style="fill:#f1592b;fill-rule:nonzero;"/><path d="M264.908,206.892c17.48,18.708 15.325,49.133 -4.825,67.962c-20.137,18.829 -50.658,18.925 -68.141,0.221c-17.479,-18.712 -20.5,-89.85 -20.5,-89.85c-0,-0 75.987,2.963 93.466,21.667Z" style="fill:#8a603c;fill-rule:nonzero;"/><path d="M251.596,219.204c11.062,11.829 9.691,31.075 -3.05,42.983c-12.746,11.901 -32.029,11.971 -43.088,0.142c-11.058,-11.833 -12.971,-56.825 -12.971,-56.825c0,0 48.055,1.871 59.109,13.7Z" style="fill:#c3996c;fill-rule:nonzero;"/><path d="M374.867,208.388c-17.484,18.708 -15.317,49.137 4.833,67.958c20.146,18.833 50.646,18.929 68.129,0.212c17.484,-18.696 20.513,-89.845 20.513,-89.845c-0,-0 -75.988,2.958 -93.475,21.675Z" style="fill:#8a603c;fill-rule:nonzero;"/><path d="M388.183,220.7c-11.062,11.829 -9.695,31.075 3.05,42.979c12.742,11.908 32.029,11.967 43.084,0.134c11.058,-11.826 12.975,-56.817 12.975,-56.817c-0,-0 -48.054,1.871 -59.109,13.704Z" style="fill:#c3996c;fill-rule:nonzero;"/><path d="M303.829,246.817c-0.333,-0 -0.675,-0.021 -1.008,-0.055c-4.9,-0.545 -8.45,-4.966 -7.9,-9.875c0.012,-0.141 1.479,-13.579 1.346,-27.97c-0.217,-22.259 -3.942,-28.084 -4.896,-29.2c-11.413,-0.017 -44.409,-0.471 -73.575,-0.88c-22.496,-0.316 -43.75,-0.616 -48.938,-0.616c-3.691,-0 -7.2,-1.563 -9.879,-4.409c-9.562,-10.175 -8.783,-41.35 -7.996,-54.283c0.296,-4.933 4.55,-8.692 9.471,-8.387c4.934,0.291 8.688,4.541 8.392,9.466c-1,16.592 0.179,34.034 2.542,39.729c7.687,0.059 25.925,0.321 46.666,0.605c29.546,0.416 63.029,0.879 73.821,0.879c4.913,-0 9.329,2.037 12.775,5.883c13.175,14.721 9.496,58.192 8.054,71.15c-0.504,4.579 -4.383,7.963 -8.875,7.963Z" style="fill:#e0dcd3;fill-rule:nonzero;"/><path d="M207.629,178.971c-4.858,-0 -8.842,-3.888 -8.942,-8.767l-0.745,-37.283c-0.1,-4.938 3.829,-9.025 8.766,-9.121l0.188,0c4.854,0 8.837,3.887 8.933,8.763l0.746,37.283c0.108,4.937 -3.825,9.025 -8.762,9.121c-0.059,0.004 -0.125,0.004 -0.184,0.004Z" style="fill:#e0dcd3;fill-rule:nonzero;"/><path d="M251.617,178.221c-4.821,-0 -8.796,-3.829 -8.938,-8.684l-0.746,-25.345c-0.146,-4.938 3.742,-9.059 8.68,-9.209c4.987,-0.146 9.062,3.742 9.208,8.68l0.742,25.349c0.145,4.946 -3.742,9.067 -8.675,9.209l-0.271,-0Z" style="fill:#e0dcd3;fill-rule:nonzero;"/><path d="M340.663,247.567c-4.5,-0 -8.371,-3.384 -8.876,-7.963c-1.445,-12.971 -5.12,-56.433 8.051,-71.15c3.445,-3.846 7.866,-5.887 12.774,-5.887c10.796,-0 44.284,-0.471 73.83,-0.875c20.725,-0.296 38.966,-0.546 46.654,-0.609c2.333,-5.712 3.533,-23.437 2.541,-39.725c-0.295,-4.937 3.463,-9.175 8.396,-9.471c4.938,-0.275 9.171,3.455 9.471,8.384c0.783,12.942 1.571,44.117 -7.996,54.287c-2.675,2.846 -6.187,4.413 -9.883,4.413c-5.179,-0 -26.442,0.296 -48.938,0.612c-29.158,0.404 -62.15,0.867 -73.57,0.884c-0.955,1.12 -4.696,6.962 -4.892,29.345c-0.121,14.384 1.329,27.68 1.346,27.817c0.546,4.908 -2.992,9.333 -7.909,9.875c-0.329,0.042 -0.662,0.063 -0.999,0.063Z" style="fill:#e0dcd3;fill-rule:nonzero;"/><path d="M436.858,179.717c-0.054,-0 -0.116,-0 -0.179,-0.005c-4.941,-0.1 -8.871,-4.179 -8.766,-9.12l0.749,-37.284c0.096,-4.933 4.163,-8.9 9.121,-8.762c4.938,0.096 8.867,4.183 8.767,9.121l-0.746,37.279c-0.104,4.879 -4.083,8.771 -8.946,8.771Z" style="fill:#e0dcd3;fill-rule:nonzero;"/><path d="M392.875,178.971c-0.088,-0 -0.179,-0.004 -0.271,-0.004c-4.937,-0.146 -8.825,-4.267 -8.679,-9.213l0.746,-25.346c0.146,-4.937 4.204,-8.841 9.204,-8.679c4.942,0.146 8.829,4.271 8.683,9.209l-0.75,25.349c-0.141,4.85 -4.112,8.684 -8.933,8.684Z" style="fill:#e0dcd3;fill-rule:nonzero;"/><path d="M431.042,378.796c5.325,-90.409 -43.534,-158.813 -113.442,-160.021l-0,-0.004c-0.029,-0 -0.046,0.004 -0.067,0.004c-0.025,-0 -0.05,-0.004 -0.075,-0.004l0,0.004c-69.9,1.208 -118.758,69.612 -113.437,160.021c2.146,36.371 -62.363,154.571 111.679,154.571c0.612,-0 1.217,-0.009 1.833,-0.009c0.609,0 1.217,0.009 1.825,0.009c174.042,-0 109.538,-118.2 111.684,-154.571Z" style="fill:#8a603c;fill-rule:nonzero;"/><path d="M417.887,463.55c0,30.192 -44.408,54.663 -99.183,54.663c-54.771,-0 -99.175,-24.471 -99.175,-54.663c0,-30.196 44.404,-54.667 99.175,-54.667c54.775,0 99.183,24.471 99.183,54.667Z" style="fill:#3b3e43;fill-rule:nonzero;"/><path d="M287.483,346.742c0,9.875 -8.012,17.891 -17.896,17.891c-9.879,0 -17.891,-8.016 -17.891,-17.891c-0,-9.888 8.012,-17.9 17.891,-17.9c9.884,-0 17.896,8.012 17.896,17.9Z" style="fill:#3b3e43;fill-rule:nonzero;"/><path d="M270.833,332.321c0,6.308 -5.125,11.429 -11.433,11.429c-6.317,0 -11.437,-5.121 -11.437,-11.429c-0,-6.317 5.12,-11.433 11.437,-11.433c6.308,-0 11.433,5.116 11.433,11.433Z" style="fill:#fff;fill-rule:nonzero;"/><path d="M346.629,346.733c0,9.884 8.013,17.9 17.896,17.9c9.879,0 17.892,-8.016 17.892,-17.9c-0,-9.879 -8.013,-17.891 -17.892,-17.891c-9.883,-0 -17.896,8.012 -17.896,17.891Z" style="fill:#3b3e43;fill-rule:nonzero;"/><path d="M363.287,332.321c0,6.308 5.113,11.429 11.421,11.429c6.321,0 11.438,-5.121 11.438,-11.429c-0,-6.317 -5.117,-11.433 -11.438,-11.433c-6.308,-0 -11.421,5.116 -11.421,11.433Z" style="fill:#fff;fill-rule:nonzero;"/></svg>