<?xml version="1.0" encoding="UTF-8" standalone="no"?><!DOCTYPE svg PUBLIC "-//W3C//DTD SVG 1.1//EN" "http://www.w3.org/Graphics/SVG/1.1/DTD/svg11.dtd"><svg width="100%" height="100%" viewBox="0 0 1118 1147" version="1.1" xmlns="http://www.w3.org/2000/svg" xmlns:xlink="http://www.w3.org/1999/xlink" xml:space="preserve" xmlns:serif="http://www.serif.com/" style="fill-rule:evenodd;clip-rule:evenodd;stroke-linecap:round;stroke-linejoin:round;stroke-miterlimit:1.5;"><g id="Layer1"><circle cx="75.884" cy="315.008" r="11.507" style="fill-opacity:0;stroke:#000;stroke-width:3.9px;"/><circle cx="50.491" cy="372.144" r="11.507" style="stroke:#000;stroke-width:3.9px;"/><circle cx="31.445" cy="429.28" r="11.507" style="stroke:#000;stroke-width:3.9px;"/><circle cx="18.748" cy="488.532" r="11.507" style="stroke:#000;stroke-width:3.9px;"/><circle cx="15.574" cy="543.552" r="11.507" style="stroke:#000;stroke-width:3.9px;"/><circle cx="15.574" cy="597.513" r="11.507" style="fill-opacity:0;stroke:#000;stroke-width:3.9px;"/><circle cx="43.084" cy="735.063" r="11.507" style="fill-opacity:0;stroke:#000;stroke-width:3.9px;"/><circle cx="26.684" cy="667.875" r="24.732" style="stroke:#000;stroke-width:3.9px;"/><circle cx="65.304" cy="785.85" r="11.507" style="stroke:#000;stroke-width:3.9px;"/><circle cx="89.639" cy="837.695" r="11.507" style="stroke:#000;stroke-width:3.9px;"/><circle cx="117.149" cy="880.018" r="11.507" style="stroke:#000;stroke-width:3.9px;"/><circle cx="152.065" cy="922.341" r="11.507" style="stroke:#000;stroke-width:3.9px;"/><circle cx="193.33" cy="965.722" r="11.507" style="stroke:#000;stroke-width:3.9px;"/><circle cx="237.769" cy="1001.7" r="11.507" style="stroke:#000;stroke-width:3.9px;"/><circle cx="912.818" cy="978.419" r="11.507" style="stroke:#000;stroke-width:3.9px;"/><circle cx="291.995" cy="1035.82" r="17.061" style="stroke:#000;stroke-width:3.9px;"/><circle cx="854.889" cy="1023.12" r="17.061" style="stroke:#000;stroke-width:3.9px;"/><circle cx="362.622" cy="1067.3" r="23.145" style="stroke:#000;stroke-width:3.9px;"/><circle cx="771.301" cy="1072.32" r="14.945" style="fill-opacity:0;stroke:#000;stroke-width:10.99px;"/><circle cx="449.912" cy="1106.44" r="20.5" style="fill-opacity:0;stroke:#000;stroke-width:19.27px;"/><circle cx="686.656" cy="1102.48" r="20.236" style="fill-opacity:0;stroke:#000;stroke-width:18.09px;"/><circle cx="569.474" cy="1110.15" r="34.255" style="stroke:#000;stroke-width:3.9px;"/><circle cx="957.257" cy="935.038" r="11.507" style="stroke:#000;stroke-width:3.9px;"/><circle cx="996.406" cy="889.541" r="11.507" style="stroke:#000;stroke-width:3.9px;"/><circle cx="1029.21" cy="841.928" r="11.507" style="fill-opacity:0;stroke:#000;stroke-width:3.9px;"/><circle cx="1055.66" cy="787.966" r="11.507" style="fill-opacity:0;stroke:#000;stroke-width:3.9px;"/><circle cx="1075.76" cy="736.121" r="11.507" style="stroke:#000;stroke-width:3.9px;"/><circle cx="1092.69" cy="680.043" r="11.507" style="stroke:#000;stroke-width:3.9px;"/><circle cx="1103.27" cy="623.965" r="11.507" style="stroke:#000;stroke-width:3.9px;"/><circle cx="1104.33" cy="570.003" r="11.507" style="stroke:#000;stroke-width:3.9px;"/><circle cx="1103.27" cy="520.274" r="11.507" style="stroke:#000;stroke-width:3.9px;"/><circle cx="1097.98" cy="468.429" r="11.507" style="fill-opacity:0;stroke:#000;stroke-width:6.26px;"/><circle cx="1086.34" cy="414.467" r="11.507" style="stroke:#000;stroke-width:3.9px;"/><circle cx="1067.3" cy="364.738" r="11.507" style="stroke:#000;stroke-width:3.9px;"/><circle cx="755.166" cy="53.665" r="11.507" style="stroke:#000;stroke-width:3.9px;"/><circle cx="700.146" cy="34.62" r="11.507" style="stroke:#000;stroke-width:3.9px;"/><circle cx="639.836" cy="20.865" r="11.507" style="stroke:#000;stroke-width:3.9px;"/><circle cx="842.986" cy="99.162" r="46.423" style="stroke:#000;stroke-width:3.9px;"/><circle cx="1042.96" cy="311.834" r="17.855" style="stroke:#000;stroke-width:3.9px;"/><circle cx="998.258" cy="244.911" r="27.642" style="stroke:#000;stroke-width:3.9px;"/><circle cx="928.161" cy="174.285" r="25.261" style="fill-opacity:0;stroke:#000;stroke-width:18.09px;"/><circle cx="583.758" cy="13.458" r="11.507" style="stroke:#000;stroke-width:3.9px;"/><circle cx="522.39" cy="15.574" r="11.507" style="stroke:#000;stroke-width:3.9px;"/><circle cx="473.719" cy="20.865" r="11.507" style="stroke:#000;stroke-width:3.9px;"/><circle cx="341.46" cy="62.129" r="11.507" style="stroke:#000;stroke-width:3.9px;"/><circle cx="292.789" cy="89.639" r="11.507" style="stroke:#000;stroke-width:3.9px;"/><circle cx="247.292" cy="116.091" r="11.507" style="stroke:#000;stroke-width:3.9px;"/><circle cx="404.151" cy="39.645" r="24.997" style="fill-opacity:0;stroke:#000;stroke-width:20.46px;"/><circle cx="204.969" cy="145.717" r="11.507" style="stroke:#000;stroke-width:3.9px;"/><circle cx="164.762" cy="186.982" r="11.507" style="stroke:#000;stroke-width:3.9px;"/><circle cx="130.904" cy="229.305" r="11.507" style="stroke:#000;stroke-width:3.9px;"/><circle cx="98.104" cy="270.569" r="11.507" style="fill-opacity:0;stroke:#000;stroke-width:3.9px;"/></g></svg>