<?xml version="1.0" encoding="UTF-8"?>
<svg id="Layer_2" data-name="Layer 2" xmlns="http://www.w3.org/2000/svg" xmlns:xlink="http://www.w3.org/1999/xlink" viewBox="0 0 667.88 275.88">
  <defs>
    <style>
      .cls-1 {
        fill: url(#New_Gradient_Swatch_2);
      }

      .cls-1, .cls-2 {
        stroke: #000;
        stroke-miterlimit: 10;
        stroke-width: 3px;
      }

      .cls-2 {
        fill: url(#New_Gradient_Swatch_2-2);
      }
    </style>
    <linearGradient id="New_Gradient_Swatch_2" data-name="New Gradient Swatch 2" x1="546.04" y1="20.99" x2="613.38" y2="20.99" gradientUnits="userSpaceOnUse">
      <stop offset="0" stop-color="#bdbdbd"/>
      <stop offset="1" stop-color="#4f4f4f"/>
    </linearGradient>
    <linearGradient id="New_Gradient_Swatch_2-2" data-name="New Gradient Swatch 2" x1="1.5" y1="137.94" x2="666.38" y2="137.94" xlink:href="#New_Gradient_Swatch_2"/>
  </defs>
  <g id="Object">
    <g>
      <path class="cls-1" d="M593.88,40.48h-28.35c-10.72,0-19.49-8.77-19.49-19.49s8.77-19.49,19.49-19.49h28.35c10.72,0,19.49,8.77,19.49,19.49s-8.77,19.49-19.49,19.49Z"/>
      <path class="cls-2" d="M645.97,79.47h-206.88c-10.76,0-19.49-8.73-19.49-19.49s8.73-19.49,19.49-19.49h58.86c10.16,0,19.29-7.38,20.31-17.49,1.17-11.61-8.01-21.49-19.39-21.49h-175.78c-10.16,0-19.29,7.38-20.31,17.49-1.17,11.61,8.01,21.49,19.39,21.49h38.95c10.76,0,19.5,8.73,19.5,19.49s-8.73,19.49-19.49,19.49H21.91c-10.16,0-19.29,7.38-20.31,17.49-1.17,11.61,8.01,21.49,19.39,21.49-2.53,0,64.07,0,145.2,0,10.76,0,19.51,8.73,19.51,19.49s-8.73,19.49-19.49,19.49h-51.7c-10.16,0-19.29,7.38-20.31,17.49-1.17,11.61,8.01,21.49,19.39,21.49-4.34,0,194.8,0,321.67,0,10.74,0,19.42,8.7,19.42,19.44s-8.73,19.54-19.49,19.54h-26.01c-10.16,0-19.29,7.38-20.31,17.49-1.17,11.61,8.01,21.49,19.39,21.49h203.71c10.16,0,19.29-7.38,20.31-17.49,1.17-11.61-8.01-21.49-19.39-21.49h-99.74c-10.76,0-19.49-8.73-19.49-19.49s8.73-19.49,19.49-19.49h25.99c10.16,0,19.29-7.38,20.31-17.49,1.17-11.61-8.01-21.49-19.39-21.49H244.17c-10.76,0-19.49-8.73-19.49-19.49s8.73-19.49,19.49-19.49h151.94c119.15,0,254.35,0,250.77,0,11.38,0,20.56-9.88,19.39-21.49-1.02-10.11-10.14-17.49-20.31-17.49Z"/>
    </g>
  </g>
</svg>